<?xml version="1.0" encoding="UTF-8" standalone="no"?>
<svg
   xmlns:dc="http://purl.org/dc/elements/1.1/"
   xmlns:cc="http://creativecommons.org/ns#"
   xmlns:rdf="http://www.w3.org/1999/02/22-rdf-syntax-ns#"
   xmlns:svg="http://www.w3.org/2000/svg"
   xmlns="http://www.w3.org/2000/svg"
   viewBox="0 0 1496 1496"
   height="1496"
   width="1496"
   xml:space="preserve"
   id="svg2"
   version="1.1"><metadata
     id="metadata8"><rdf:RDF><cc:Work
         rdf:about=""><dc:format>image/svg+xml</dc:format><dc:type
           rdf:resource="http://purl.org/dc/dcmitype/StillImage" /><dc:title></dc:title></cc:Work></rdf:RDF></metadata><defs
     id="defs6" /><g
     transform="matrix(1.3333333,0,0,-1.3333333,0,1496)"
     id="g10"><g
       transform="scale(0.1)"
       id="g12"><path
         id="path14"
         style="fill:#ffffff;fill-opacity:1;fill-rule:nonzero;stroke:none"
         d="M 11220,0 H 0 V 11220 H 11220 V 0" /><path
         id="path16"
         style="fill:#383533;fill-opacity:1;fill-rule:nonzero;stroke:none"
         d="M 6480.53,3540.09 H 4718.64 c -59.24,0 -96.53,-63.82 -67.44,-115.42 l 170.41,-205.76 h 1555.9 l 170.42,205.83 c 29.06,51.58 -8.2,115.35 -67.4,115.35" /><path
         id="path18"
         style="fill:#44403d;fill-opacity:1;fill-rule:nonzero;stroke:none"
         d="m 6991.49,2468.57 c 0,105.65 -57.24,197.93 -142.42,247.51 l -1.84,0.99 1.84,1.57 c -218.06,119.87 -381.5,270.95 -475.89,500.26 h -773.63 -773.64 c -94.39,-229.31 -257.82,-380.39 -475.89,-500.26 l 1.84,-1.57 -1.84,-0.99 c -85.17,-49.58 -142.43,-141.86 -142.43,-247.51 0,-158.06 128.14,-286.19 286.2,-286.19 h 2232.43 v 1.05 c 148.26,10.75 265.27,134.14 265.27,285.14" /><path
         id="path20"
         style="fill:#383533;fill-opacity:1;fill-rule:nonzero;stroke:none"
         d="M 6726.21,2182.38 H 4493.79 c -52.41,0 -101.52,-14.09 -143.76,-38.68 -85.18,-49.58 -142.43,-141.86 -142.43,-247.51 h 286.19 286.18 1660.06 286.18 286.2 c 0,158.05 -128.13,286.19 -286.2,286.19" /><path
         id="path22"
         style="fill:#44403d;fill-opacity:1;fill-rule:nonzero;stroke:none"
         d="M 5610,1896.19 H 4207.6 V 1610 h 2804.81 v 286.19 H 5610" /><path
         id="path24"
         style="fill:#44403d;fill-opacity:1;fill-rule:nonzero;stroke:none"
         d="m 6326.3,3540.09 c -216.66,490.35 -344.76,1049.11 -365.15,1622.18 11.01,90.72 88.15,161.04 181.83,161.04 h -185.04 -716.78 -185.08 c 93.7,0 170.82,-70.32 181.84,-161.04 -20.71,-577.62 -151.93,-1126.7 -373.75,-1622.18 H 6326.3" /><path
         id="path26"
         style="fill:#565656;fill-opacity:1;fill-rule:nonzero;stroke:none"
         d="m 4355.06,2479.14 c 0,95.39 52.83,178.38 130.77,221.5 -111.87,-4.27 -201.33,-96.08 -201.33,-209.01 0,-97.48 66.69,-179.15 156.87,-202.5 -52.8,46.38 -86.31,114.21 -86.31,190.01" /><path
         id="path28"
         style="fill:#383533;fill-opacity:1;fill-rule:nonzero;stroke:none"
         d="M 6376.29,5723.25 H 4830.16 c -110.44,0 -199.96,-89.53 -199.96,-199.97 0,-109.88 88.63,-198.98 198.3,-199.88 v -0.09 h 1540.43 c 14.94,0 29.45,1.77 43.46,4.87 89.52,19.86 156.5,99.6 156.5,195.1 0,95.49 -61.16,199.97 -192.6,199.97" /><path
         id="path30"
         style="fill:#44403d;fill-opacity:1;fill-rule:nonzero;stroke:none"
         d="M 6293.81,6007.25 H 4905.27 c -79.1,0 -143.23,-64.13 -143.23,-143.22 0,-79.1 64.13,-143.22 143.23,-143.22 h 1388.54 v 0.64 c 6.78,0.55 13.48,1.41 19.96,2.84 64.11,14.23 112.09,71.34 112.09,139.74 0,68.39 -47.44,143.22 -132.05,143.22" /><path
         id="path32"
         style="fill:#44403d;fill-opacity:1;fill-rule:nonzero;stroke:none"
         d="m 5807.84,9396.11 c 0,-118.13 -95.76,-213.89 -213.89,-213.89 -118.13,0 -213.89,95.76 -213.89,213.89 0,118.13 95.76,213.89 213.89,213.89 118.13,0 213.89,-95.76 213.89,-213.89" /><path
         id="path34"
         style="fill:#44403d;fill-opacity:1;fill-rule:nonzero;stroke:none"
         d="m 6675.69,7365.37 c 0,594.33 -1076.13,1884.9 -1076.13,1884.9 0,0 -1076.13,-1290.57 -1076.13,-1884.9 0,-339.32 157.2,-641.77 402.57,-839.01 v -0.3 c 1.34,-0.88 2.6,-1.88 3.93,-2.78 8.69,-6.93 17.33,-13.94 26.25,-20.6 58.38,-51.97 95.29,-129.66 95.29,-213.44 v -281.99 h 1096.19 v 281.99 c 0,88.52 39.72,167.44 103.92,218.67 258.82,196.53 424.11,507.41 424.11,857.46" /><path
         id="path36"
         style="fill:#383533;fill-opacity:1;fill-rule:nonzero;stroke:none"
         d="M 6147.65,6162.43 H 5051.46 c -44.65,0 -80.87,36.21 -80.87,80.88 0,44.67 36.22,80.88 80.87,80.88 h 1096.19 c 44.66,0 80.88,-36.21 80.88,-80.88 0,-44.67 -36.22,-80.88 -80.88,-80.88" /><path
         id="path38"
         style="fill:#383533;fill-opacity:1;fill-rule:nonzero;stroke:none"
         d="m 6251.58,6507.91 c 258.82,196.53 424.11,507.41 424.11,857.46 0,71.56 -15.72,153.29 -43.18,241.58 -1.61,-5.27 -352.56,-1139.84 -1581.04,-1296.59 291.91,0 766.1,0 1097.37,0 5.81,79.84 43.73,150.45 102.74,197.55" /><path
         id="path40"
         style="fill:#383533;fill-opacity:1;fill-rule:nonzero;stroke:none"
         d="m 5705.89,9578.28 c 21.29,-33.25 33.64,-72.77 33.64,-115.18 0,-118.09 -95.73,-213.81 -213.82,-213.81 -41.01,0 -79.32,11.55 -111.86,31.57 38,-59.32 104.49,-98.64 180.17,-98.64 118.09,0 213.82,95.73 213.82,213.82 0,77.07 -40.79,144.61 -101.95,182.24" /><path
         id="path42"
         style="fill:#565656;fill-opacity:1;fill-rule:nonzero;stroke:none"
         d="m 5417.66,9376.22 c 0,104.24 84.51,188.74 188.75,188.74 60.93,0 115.1,-28.88 149.62,-73.69 -32.6,56.59 -93.69,94.68 -163.67,94.68 -104.24,0 -188.75,-84.51 -188.75,-188.75 0,-43.31 14.6,-83.2 39.13,-115.05 -15.95,27.69 -25.08,59.81 -25.08,94.07" /><path
         id="path44"
         style="fill:#565656;fill-opacity:1;fill-rule:nonzero;stroke:none"
         d="m 5708.42,8965.27 c -79.87,103.19 -133.25,167.22 -133.25,167.22 0,0 -354.38,-425.05 -603.54,-850.81 191.87,278.57 443.64,512.63 736.79,683.59" /><path
         id="path46"
         style="fill:#565656;fill-opacity:1;fill-rule:nonzero;stroke:none"
         d="m 4740.58,5512.05 c 0,68.02 37.66,127.19 93.24,157.94 -79.77,-3.05 -143.56,-68.51 -143.56,-149.03 0,-69.5 47.56,-127.74 111.85,-144.39 -37.64,33.07 -61.53,81.44 -61.53,135.48" /></g></g></svg>