<?xml version="1.0" encoding="UTF-8" standalone="no"?>
<svg
   xmlns:dc="http://purl.org/dc/elements/1.1/"
   xmlns:cc="http://creativecommons.org/ns#"
   xmlns:rdf="http://www.w3.org/1999/02/22-rdf-syntax-ns#"
   xmlns:svg="http://www.w3.org/2000/svg"
   xmlns="http://www.w3.org/2000/svg"
   viewBox="0 0 1496 1496"
   height="1496"
   width="1496"
   xml:space="preserve"
   id="svg2"
   version="1.1"><metadata
     id="metadata8"><rdf:RDF><cc:Work
         rdf:about=""><dc:format>image/svg+xml</dc:format><dc:type
           rdf:resource="http://purl.org/dc/dcmitype/StillImage" /><dc:title></dc:title></cc:Work></rdf:RDF></metadata><defs
     id="defs6" /><g
     transform="matrix(1.3333333,0,0,-1.3333333,0,1496)"
     id="g10"><g
       transform="scale(0.1)"
       id="g12"><path
         id="path14"
         style="fill:#ffffff;fill-opacity:1;fill-rule:nonzero;stroke:none"
         d="M 11220,0 H 0 V 11220 H 11220 V 0" /><path
         id="path16"
         style="fill:#fb743a;fill-opacity:1;fill-rule:nonzero;stroke:none"
         d="m 6137.54,6895.41 c -81.59,-57.62 -180.42,-90.84 -297.75,-90.84 h -82.85 c -2.94,0 -4.62,0 -4.62,0 h -747.17 l -8.55,351.57 c 0,0 488.25,349.48 444.51,840.68 -37.85,-2.11 -75.7,2.1 -113.55,5.89 -140.04,15.13 -388.16,-110.61 -387.74,-119.86 -39.95,89.57 -79.48,179.15 -119.43,268.73 0,0 141.72,190.5 563.1,517.27 60.99,47.52 227.94,49.2 368.83,49.2 h 15.13 c 689.7,0 909.22,-1443.31 370.09,-1822.64" /><path
         id="path18"
         style="fill:#333333;fill-opacity:1;fill-rule:nonzero;stroke:none"
         d="m 5018.54,7886.27 c 0.41,-9.77 -0.98,-19.25 -3.9,-28.09 2.72,8.2 4.36,17.61 3.9,28.09 z m 63.47,-1002.96 h 757.76 c 95.62,0 180.52,25.71 252.35,76.45 285.52,200.87 325.66,756.58 199.13,1156.28 -103.67,327.64 -299.52,523.25 -523.82,523.25 h -15.12 c -83.37,0 -278.65,0 -320.44,-32.55 -304.69,-236.31 -460.55,-400.34 -519.67,-467.89 l 64.6,-145.35 c 99.88,46.99 254.56,98.8 359.25,87.5 l 6.41,-0.65 c 33.43,-3.35 64.14,-6.51 94.28,-4.92 42.66,2.39 79.01,-29.35 82.8,-71.65 40.66,-456.53 -326.94,-791.7 -443.27,-885.6 z m 757.76,-157.5 h -834.61 c -42.76,0 -77.68,34.1 -78.75,76.83 l -8.57,351.58 c -0.61,26.07 11.69,50.78 32.92,65.96 4.2,3.02 404.31,296 414.15,699.85 -12.97,1.08 -25.73,2.36 -38.3,3.62 l -6.87,0.69 c -5.84,0.64 -11.27,0.87 -16.91,0.87 -104.44,0 -273.32,-78.24 -309.21,-99.9 -9.69,-9.07 -21.79,-15.79 -35.48,-19.07 -36.91,-8.84 -74.75,9.92 -90.23,44.5 l -119.46,268.76 c -11.59,25.99 -8.26,56.21 8.77,79.05 6.05,8.16 152.98,202.95 578.01,532.54 78.13,60.86 228.56,65.7 417.08,65.7 h 15.12 c 296.54,0 548.48,-236.71 673.99,-633.23 146.43,-462.57 89.77,-1087.5 -258.55,-1332.54 -98.85,-69.78 -214.31,-105.21 -343.1,-105.21" /><path
         id="path20"
         style="fill:#333333;fill-opacity:1;fill-rule:nonzero;stroke:none"
         d="m 5441.05,7918.06 c -41.84,0 -76.65,32.89 -78.6,75.08 -2.05,43.43 31.53,80.29 74.96,82.34 12.05,0.56 24.71,2.54 37.58,5.93 24.2,6.81 52.65,31.01 52.65,41.98 0,43.5 35.28,78.75 78.75,78.75 43.48,0 78.75,-35.25 78.75,-78.75 0,-107.43 -101,-174.85 -168.88,-193.98 -24.92,-6.53 -48.5,-10.2 -71.47,-11.28 -1.28,-0.04 -2.51,-0.07 -3.74,-0.07" /><path
         id="path22"
         style="fill:#fbbfa6;fill-opacity:1;fill-rule:nonzero;stroke:none"
         d="M 6394.04,6569 H 4825.96 v 100.46 c 0,74.62 60.49,135.11 135.11,135.11 h 1297.86 c 74.62,0 135.11,-60.49 135.11,-135.11 V 6569" /><path
         id="path24"
         style="fill:#333333;fill-opacity:1;fill-rule:nonzero;stroke:none"
         d="M 4904.72,6647.75 H 6315.3 v 21.72 c 0,31.07 -25.28,56.34 -56.35,56.34 H 4961.06 c -31.07,0 -56.34,-25.27 -56.34,-56.34 z m 1489.33,-157.5 H 4825.97 c -43.48,0 -78.75,35.25 -78.75,78.75 v 100.47 c 0,117.92 95.92,213.84 213.84,213.84 h 1297.89 c 117.92,0 213.85,-95.92 213.85,-213.84 V 6569 c 0,-43.5 -35.28,-78.75 -78.75,-78.75" /><path
         id="path26"
         style="fill:#fb9e76;fill-opacity:1;fill-rule:nonzero;stroke:none"
         d="M 6511.35,5941.87 H 4708.66 v 541.53 c 0,47.27 38.32,85.6 85.59,85.6 h 1631.5 c 47.27,0 85.6,-38.33 85.6,-85.6 v -541.53" /><path
         id="path28"
         style="fill:#333333;fill-opacity:1;fill-rule:nonzero;stroke:none"
         d="M 4787.41,6020.62 H 6432.6 v 462.79 c 0,3.77 -3.07,6.84 -6.87,6.84 h -1631.5 c -3.74,0 -6.82,-3.07 -6.82,-6.84 z m 1723.94,-157.5 H 4708.66 c -43.47,0 -78.75,35.25 -78.75,78.75 v 541.54 c 0,90.62 73.73,164.34 164.32,164.34 h 1631.5 c 90.65,0 164.37,-73.72 164.37,-164.34 v -541.54 c 0,-43.5 -35.27,-78.75 -78.75,-78.75" /><path
         id="path30"
         style="fill:#fb743a;fill-opacity:1;fill-rule:nonzero;stroke:none"
         d="m 6635.46,7833.22 c 0,-570.68 -260.32,-824.69 -497.92,-937.81 539.13,379.33 319.61,1822.64 -370.09,1822.64 h -15.13 v 341.91 c 0,0 883.14,-175.38 883.14,-1226.74" /><path
         id="path32"
         style="fill:#333333;fill-opacity:1;fill-rule:nonzero;stroke:none"
         d="m 5831.06,8793.1 c 268.7,-31.38 493.93,-261.7 610.36,-629.54 72.08,-227.66 94.95,-494.72 58.04,-736.41 38.09,117.49 57.26,252.97 57.26,406.08 0,773.43 -510.23,1042 -725.66,1120.89 z M 6137.6,6816.66 c -27.23,0 -53.48,14.13 -68.04,39.02 -20.66,35.35 -10.82,80.59 22.66,104.12 285.42,200.83 325.56,756.54 199.03,1156.24 -103.67,327.64 -299.52,523.25 -523.82,523.25 h -15.12 c -43.48,0 -78.75,35.25 -78.75,78.75 v 341.92 c 0,23.58 10.56,45.91 28.76,60.86 18.2,15 42.24,21.05 65.32,16.38 9.48,-1.87 946.58,-200.72 946.58,-1303.97 0,-620.26 -295.21,-891.01 -542.84,-1008.93 -10.87,-5.18 -22.4,-7.64 -33.78,-7.64" /><path
         id="path34"
         style="fill:#fbbfa6;fill-opacity:1;fill-rule:nonzero;stroke:none"
         d="M 6663.31,5678.9 H 4556.69 v 0 c 0,145.24 117.74,262.97 262.97,262.97 h 1580.68 c 145.23,0 262.97,-117.73 262.97,-262.97 v 0" /><path
         id="path36"
         style="fill:#333333;fill-opacity:1;fill-rule:nonzero;stroke:none"
         d="m 4653.14,5757.64 h 1913.74 c -29.59,62.32 -93.11,105.48 -166.53,105.48 H 4819.66 c -73.42,0 -136.94,-43.16 -166.52,-105.48 z m 2011.2,-157.5 c -0.26,-0.03 -0.67,-0.05 -1.03,0 H 4556.7 c -43.48,0 -78.75,35.25 -78.75,78.75 0,188.44 153.3,341.73 341.71,341.73 h 1580.69 c 183.5,0 333.72,-145.42 341.41,-327.09 0.87,-4.75 1.33,-9.64 1.33,-14.64 0,-43.5 -35.22,-78.75 -78.75,-78.75" /><path
         id="path38"
         style="fill:#fae1c3;fill-opacity:1;fill-rule:nonzero;stroke:none"
         d="M 3394.53,5045.02 C 3218.42,4992.2 3118.48,4806.61 3171.3,4630.5 l 355.2,-1184.19 c 52.82,-176.11 238.41,-276.06 414.52,-223.23 v 0 c 176.11,52.82 276.06,238.41 223.23,414.52 l -355.19,1184.19 c -52.83,176.11 -238.42,276.06 -414.53,223.23 v 0" /><path
         id="path40"
         style="fill:#333333;fill-opacity:1;fill-rule:nonzero;stroke:none"
         d="m 3490.29,4980.39 c -24.61,0 -49.21,-3.64 -73.16,-10.79 -134.22,-40.27 -210.66,-182.24 -170.42,-316.48 l 355.2,-1184.18 c 31.99,-106.72 132.07,-181.23 243.32,-181.23 v 0 c 24.61,0 49.22,3.63 73.16,10.79 65.01,19.53 118.59,63.18 150.74,122.94 32.19,59.78 39.17,128.51 19.68,193.52 l -355.19,1184.2 c -31.99,106.71 -132.07,181.23 -243.33,181.23 z m 354.94,-1850.18 v 0 c -180.26,0 -342.37,120.68 -394.16,293.49 l -355.19,1184.17 c -65.22,217.43 58.6,447.35 276.03,512.56 38.56,11.59 78.39,17.46 118.38,17.46 180.27,0 342.38,-120.69 394.16,-293.49 l 355.2,-1184.17 c 31.63,-105.31 20.3,-216.64 -31.84,-313.46 -52.14,-96.8 -138.84,-167.53 -244.2,-199.11 -38.55,-11.59 -78.39,-17.45 -118.38,-17.45" /><path
         id="path42"
         style="fill:#fae1c3;fill-opacity:1;fill-rule:nonzero;stroke:none"
         d="m 8372.78,4116.46 c -21.56,-4.88 -52.78,-13.26 -92.34,-23.87 -221.59,-59.47 -634.15,-170.11 -1382.61,-86.96 -12.15,1.34 -23.82,5.49 -34.07,12.13 -12.41,8.03 -25.35,15.92 -38.73,23.66 -337.71,195.16 -760.64,181.45 -1103.66,-35.99 l -194.82,-123.46 c -11.79,-7.46 -25.35,-11.69 -39.32,-12.18 l -834.26,-29.88 c -86.93,1.64 -155.22,-23.36 -202.03,-70.83 -37.12,-37.63 -59.68,-89.7 -60.37,-139.23 -0.38,-27.3 2.26,-52.62 7.79,-75.8 2.23,-5.53 3.82,-11.33 4.75,-17.25 29.4,-93.13 108.97,-147.24 225.48,-148.88 l 753.07,-10.64 h 828.08 c 43.5,0 78.75,-35.25 78.75,-78.75 0,-43.51 -35.25,-78.75 -78.75,-78.75 h -829.18 l -754.2,10.64 c -178.14,2.53 -311.39,93.15 -366.07,237.5 l -487.34,225.13 c -16.53,7.63 -29.89,20.76 -37.83,37.12 l -597.88,1232.59 c -22.69,49.6 -66.35,88.21 -120.49,107.56 -43.63,15.59 -113.71,25.79 -200.15,-13.76 -140.89,-64.4 -159.84,-190.93 -116.13,-287.75 l 649.12,-1418.17 1373.23,-786.4 c 165.68,-94.87 329,-185.03 505.26,-245.4 124.28,-42.55 257.58,-59.47 419.52,-71.77 380.44,-28.9 746.22,20.96 1133.36,73.8 132.61,18.09 269.73,36.81 405.98,51.78 318.33,34.86 804.57,20.38 1026.65,-15.92 151.98,-24.68 232.32,206.03 266.65,345.92 138.99,566.5 8.1,1375.64 -107.46,1413.81" /><path
         id="path44"
         style="fill:#333333;fill-opacity:1;fill-rule:nonzero;stroke:none"
         d="m 8213.59,2356.73 c -222.08,36.3 -708.32,50.78 -1026.65,15.92 -136.25,-14.97 -273.37,-33.69 -405.98,-51.78 -387.14,-52.84 -752.92,-102.7 -1133.36,-73.8 -161.94,12.3 -295.24,29.22 -419.52,71.77 -176.26,60.37 -339.58,150.53 -505.26,245.4 l -1373.23,786.4 -649.12,1418.17 c -43.71,96.82 -24.76,223.35 116.13,287.75 86.44,39.55 156.52,29.35 200.15,13.76 54.14,-19.35 97.8,-57.96 120.49,-107.56 l 597.88,-1232.59 c 7.94,-16.36 21.3,-29.49 37.83,-37.12 l 487.34,-225.13 c 54.68,-144.35 187.93,-234.97 366.07,-237.5 l 754.2,-10.64 h 829.18 c 43.5,0 78.75,35.24 78.75,78.75 0,43.5 -35.25,78.75 -78.75,78.75 h -828.08 l -753.07,10.64 c -116.51,1.64 -196.08,55.75 -225.48,148.88 -0.93,5.92 -2.52,11.72 -4.75,17.25 -5.53,23.18 -8.17,48.5 -7.79,75.8 0.69,49.53 23.25,101.6 60.37,139.23 46.81,47.47 115.1,72.47 202.03,70.83 l 834.26,29.88 c 13.97,0.49 27.53,4.72 39.32,12.18 l 194.82,123.46 c 343.02,217.44 765.95,231.15 1103.66,35.99 13.38,-7.74 26.32,-15.63 38.73,-23.66 10.25,-6.64 21.92,-10.79 34.07,-12.13 748.46,-83.15 1161.02,27.49 1382.61,86.96 39.56,10.61 70.78,18.99 92.34,23.87 115.56,-38.17 246.45,-847.31 107.46,-1413.81 -34.33,-139.89 -114.67,-370.6 -266.65,-345.92 z m 316.2,1820.25 c -68.08,99.87 -145.09,101.67 -184.72,93.9 -29.43,-5.77 -62.96,-14.77 -105.44,-26.17 -209.82,-56.3 -598.85,-160.66 -1306.42,-84.52 -9.57,5.94 -19.38,11.82 -29.38,17.61 -388.6,224.61 -873.99,209.56 -1266.77,-39.32 l -176.8,-112.05 -808.98,-29.08 c -159.71,1.49 -258.3,-62.75 -312.52,-117.71 -60.68,-61.55 -98.13,-142.94 -104.69,-226.1 l -369.53,170.7 -584.83,1205.63 c -39.5,86.39 -116.04,155.19 -209.97,188.78 -100.46,35.83 -213.64,29.2 -318.64,-18.85 -200.8,-91.79 -282.44,-300.31 -194,-496.18 l 659.81,-1441.54 c 6.84,-14.95 18.2,-27.38 32.45,-35.56 l 1395.17,-798.96 c 165.68,-94.87 343.28,-192.9 532.51,-257.71 155.74,-53.34 318.39,-69.19 458.61,-79.83 80.03,-6.07 159.73,-8.76 239.17,-8.76 315.05,0 625.39,42.35 927.42,83.54 131.61,17.97 267.7,36.56 401.87,51.27 301.19,33.07 776.33,19.18 984.05,-14.79 91.18,-14.89 222.15,2.69 329.3,170.93 270.17,424.05 206.69,1519.71 12.33,1804.77" /></g></g></svg>