<?xml version="1.0" encoding="UTF-8" standalone="no"?>
<svg
   xmlns:dc="http://purl.org/dc/elements/1.1/"
   xmlns:cc="http://creativecommons.org/ns#"
   xmlns:rdf="http://www.w3.org/1999/02/22-rdf-syntax-ns#"
   xmlns:svg="http://www.w3.org/2000/svg"
   xmlns="http://www.w3.org/2000/svg"
   viewBox="0 0 1496 1496"
   height="1496"
   width="1496"
   xml:space="preserve"
   id="svg2"
   version="1.1"><metadata
     id="metadata8"><rdf:RDF><cc:Work
         rdf:about=""><dc:format>image/svg+xml</dc:format><dc:type
           rdf:resource="http://purl.org/dc/dcmitype/StillImage" /><dc:title></dc:title></cc:Work></rdf:RDF></metadata><defs
     id="defs6" /><g
     transform="matrix(1.3333333,0,0,-1.3333333,0,1496)"
     id="g10"><g
       transform="scale(0.1)"
       id="g12"><path
         id="path14"
         style="fill:#ffffff;fill-opacity:1;fill-rule:nonzero;stroke:none"
         d="M 11220,0 H 0 V 11220 H 11220 V 0" /><path
         id="path16"
         style="fill:#eacd53;fill-opacity:1;fill-rule:nonzero;stroke:none"
         d="M 6688.4,4015.41 H 4531.64 c -54.12,0 -88.17,-58.29 -61.6,-105.43 l 155.65,-187.95 h 1968.62 l 155.66,188.01 c 26.55,47.12 -7.49,105.37 -61.57,105.37" /><path
         id="path18"
         style="fill:#eacd53;fill-opacity:1;fill-rule:nonzero;stroke:none"
         d="M 7157.48,2674.01 H 4062.52 c -47.86,0 -92.73,-12.86 -131.31,-35.32 -77.8,-45.29 -130.1,-129.58 -130.1,-226.09 h 261.41 261.42 2572.12 261.42 261.41 c 0,144.37 -117.03,261.41 -261.41,261.41" /><path
         id="path20"
         style="fill:#ffeb99;fill-opacity:1;fill-rule:nonzero;stroke:none"
         d="M 6122.56,2412.6 H 3801.11 V 2151.19 H 7418.89 V 2412.6 H 6122.56" /><path
         id="path22"
         style="fill:#ffeb99;fill-opacity:1;fill-rule:nonzero;stroke:none"
         d="m 7110.14,3285.83 c -65.3,38.61 -128.4,80.96 -188.89,126.73 -60.31,45.65 -118.04,94.7 -172.83,146.85 -28.08,26.72 -55.38,54.26 -81.87,82.56 -10.3,11.01 -69.52,78.26 -69.52,78.26 h -977.48 -9.55 -9.55 -977.48 c 0,0 -59.22,-67.25 -69.52,-78.26 -26.49,-28.3 -53.79,-55.84 -81.87,-82.56 -54.79,-52.15 -112.52,-101.2 -172.83,-146.85 -60.49,-45.77 -123.59,-88.12 -188.89,-126.73 -141.78,-83.84 -308.75,-159.65 -308.75,-350.4 0,-144.38 117.04,-261.42 261.41,-261.42 h 1537.93 9.55 9.55 1537.93 c 144.37,0 261.41,117.04 261.41,261.42 0,190.75 -166.97,266.56 -308.75,350.4" /><path
         id="path24"
         style="fill:#fffffd;fill-opacity:1;fill-rule:nonzero;stroke:none"
         d="m 3937.79,2946.85 c 0,87.13 48.25,162.94 119.45,202.33 -102.2,-3.91 -183.91,-87.76 -183.91,-190.92 0,-89.04 60.92,-163.65 143.3,-184.97 -48.24,42.36 -78.84,104.32 -78.84,173.56" /><path
         id="path26"
         style="fill:#ffeb99;fill-opacity:1;fill-rule:nonzero;stroke:none"
         d="m 7126.05,7495.71 c -114.77,284.59 -307.59,535.64 -552.26,720.73 -122.66,92.79 -258.42,167.52 -400.97,225.29 -132.23,53.6 -449.39,125.56 -449.39,109.13 v 470.52 c 0,34.44 -35.78,57.53 -67.01,43.03 -212.8,-98.78 -369.01,-295.9 -414.27,-533.14 l 0.39,-0.9 -0.58,0.02 c -123.87,0 -211.2,-62.45 -289.37,-167.82 L 4120.32,7318.19 c -54.41,-64.89 -84.72,-150.69 -76.75,-243.68 13.81,-160.97 144.95,-290.96 306.02,-303.43 45.29,-3.5 88.83,2.05 129.02,15.03 93.46,170.03 253.97,298.06 446.07,348.26 24.23,5.41 49.06,8.09 73.89,8.09 21.22,0 42.45,-1.89 63.24,-6.01 19.23,-3.81 37.57,-11.64 56.58,-16.6 40.31,-10.53 81.91,-15.96 123.57,-15.96 217.9,0 402.61,140.25 470.03,335.23 l 0.26,-0.61 c 3.21,-39.66 4.85,-79.78 4.85,-120.28 0,-287.49 -82.87,-555.46 -225.47,-782.04 -12.87,-17.55 -61.6,-82.53 -133,-162.09 -158.5,-173.74 -362.13,-296.79 -530.6,-459.71 -364.57,-352.58 -579.46,-840.28 -595.18,-1346.21 l -0.07,-0.58 c -3.68,-60.45 -1.87,-121.02 -1.87,-181.53 0,-171.18 114.63,-315.49 271.29,-360.62 52.86,-15.23 163.34,-10.04 163.34,-10.04 341.63,0 1722.1,0 1941.71,0 199.74,0 361.97,160.16 365.55,359.05 -1.5,20.87 -2.84,41.79 -4.11,62.73 -6.87,112.86 -10.75,226.52 -10.75,341.12 0,418.9 39.99,869.27 136.91,1287.48 19.77,85.31 41.91,169.28 66.57,251.38 115.17,383.62 115.48,804.48 -35.37,1178.54" /><path
         id="path28"
         style="fill:#e8d37c;fill-opacity:1;fill-rule:nonzero;stroke:none"
         d="m 4666.89,4015.41 h 1936.86 c 1.6,0 3.36,0 4.85,0 199.74,0 361.98,160.16 365.55,359.05 -1.49,20.87 -2.84,41.79 -4.11,62.73 -6.86,112.86 -10.74,226.52 -10.74,341.12 0,387.13 34.26,801.07 115.93,1191.72 -126.06,-475.94 -669.1,-1944.58 -2571.68,-1944.58 20.85,-6.01 50.63,-8.81 79.09,-10.04 h 84.25" /><path
         id="path30"
         style="fill:#e8d37c;fill-opacity:1;fill-rule:nonzero;stroke:none"
         d="m 5469.77,8551.99 c 33.12,0 254.17,0 254.17,0 0,60.8 0,469.39 0,469.39 0,0 -287.29,-469.39 -254.17,-469.39" /><path
         id="path32"
         style="fill:#fffffd;fill-opacity:1;fill-rule:nonzero;stroke:none"
         d="m 4503.61,7708.34 c -167.4,-210.05 -327.67,-411.17 -327.66,-411.19 -45.9,-54.74 -71.46,-127.12 -64.74,-205.57 8.42,-98.26 68.81,-182.62 152.97,-225.85 -0.37,13.48 -0.59,27 -0.59,40.57 0,296.27 88.35,571.86 240.02,802.04" /></g></g></svg>