<?xml version="1.0" encoding="UTF-8" standalone="no"?>
<svg
   xmlns:dc="http://purl.org/dc/elements/1.1/"
   xmlns:cc="http://creativecommons.org/ns#"
   xmlns:rdf="http://www.w3.org/1999/02/22-rdf-syntax-ns#"
   xmlns:svg="http://www.w3.org/2000/svg"
   xmlns="http://www.w3.org/2000/svg"
   viewBox="0 0 1496 1496"
   height="1496"
   width="1496"
   xml:space="preserve"
   id="svg2"
   version="1.1"><metadata
     id="metadata8"><rdf:RDF><cc:Work
         rdf:about=""><dc:format>image/svg+xml</dc:format><dc:type
           rdf:resource="http://purl.org/dc/dcmitype/StillImage" /><dc:title></dc:title></cc:Work></rdf:RDF></metadata><defs
     id="defs6" /><g
     transform="matrix(1.3333333,0,0,-1.3333333,0,1496)"
     id="g10"><g
       transform="scale(0.1)"
       id="g12"><path
         id="path14"
         style="fill:#ffffff;fill-opacity:1;fill-rule:nonzero;stroke:none"
         d="M 11220,0 H 0 V 11220 H 11220 V 0" /><path
         id="path16"
         style="fill:#383533;fill-opacity:1;fill-rule:nonzero;stroke:none"
         d="M 6700.99,3996.81 H 4519.05 c -54.73,0 -89.2,-58.98 -62.31,-106.67 L 4614.21,3700 h 1991.58 l 157.48,190.21 c 26.86,47.66 -7.58,106.6 -62.28,106.6" /><path
         id="path18"
         style="fill:#383533;fill-opacity:1;fill-rule:nonzero;stroke:none"
         d="M 7175.53,2639.75 H 4044.47 c -48.43,0 -93.82,-13.01 -132.85,-35.74 C 3832.91,2558.2 3780,2472.93 3780,2375.29 h 264.47 264.46 2602.14 264.46 264.47 c 0,146.06 -118.4,264.46 -264.47,264.46" /><path
         id="path20"
         style="fill:#44403d;fill-opacity:1;fill-rule:nonzero;stroke:none"
         d="M 6128.54,2375.29 H 3780 v -264.46 h 3660 v 264.46 H 6128.54" /><path
         id="path22"
         style="fill:#44403d;fill-opacity:1;fill-rule:nonzero;stroke:none"
         d="m 7127.65,3258.71 c -66.07,39.06 -129.9,81.9 -191.1,128.21 -61.01,46.18 -119.42,95.81 -174.84,148.56 -28.41,27.04 -56.03,54.9 -82.82,83.53 -10.43,11.13 -70.35,79.17 -70.35,79.17 h -988.88 -9.66 -9.66 -988.88 c 0,0 -59.92,-68.04 -70.35,-79.17 -26.79,-28.63 -54.41,-56.49 -82.82,-83.53 -55.42,-52.75 -113.83,-102.38 -174.84,-148.56 -61.2,-46.31 -125.03,-89.15 -191.1,-128.21 C 3948.93,3173.89 3780,3097.19 3780,2904.22 c 0,-146.06 118.41,-264.47 264.47,-264.47 h 1555.87 9.66 9.66 1555.87 c 146.06,0 264.47,118.41 264.47,264.47 0,192.97 -168.93,269.67 -312.35,354.49" /><path
         id="path24"
         style="fill:#565656;fill-opacity:1;fill-rule:nonzero;stroke:none"
         d="m 3918.27,2915.78 c 0,88.14 48.82,164.83 120.85,204.68 -103.39,-3.95 -186.05,-88.78 -186.05,-193.14 0,-90.08 61.63,-165.56 144.96,-187.13 -48.79,42.86 -79.76,105.54 -79.76,175.59" /><path
         id="path26"
         style="fill:#44403d;fill-opacity:1;fill-rule:nonzero;stroke:none"
         d="m 7143.74,7517.72 c -116.1,287.91 -311.18,541.88 -558.7,729.13 -124.09,93.87 -261.44,169.48 -405.65,227.93 -133.77,54.21 -454.63,127.02 -454.63,110.39 v 476.02 c 0,34.84 -36.21,58.19 -67.8,43.53 -215.28,-99.93 -373.32,-299.36 -419.1,-539.36 l 0.39,-0.92 -0.58,0.03 c -125.33,0 -213.67,-63.19 -292.75,-169.78 L 4102.94,7338.12 c -55.05,-65.64 -85.71,-152.44 -77.65,-246.52 13.97,-162.85 146.63,-294.36 309.59,-306.97 45.81,-3.55 89.87,2.07 130.53,15.21 94.55,172 256.93,301.53 451.28,352.32 24.5,5.47 49.63,8.18 74.75,8.18 21.46,0 42.94,-1.91 63.97,-6.08 19.46,-3.85 38.02,-11.77 57.24,-16.79 40.78,-10.66 82.87,-16.15 125.02,-16.15 220.45,0 407.3,141.89 475.51,339.14 l 0.27,-0.61 c 3.24,-40.13 4.9,-80.72 4.9,-121.69 0,-290.84 -83.84,-561.94 -228.11,-791.17 -13.01,-17.75 -62.3,-83.48 -134.55,-163.97 -160.35,-175.77 -366.34,-300.25 -536.78,-465.08 -368.83,-356.69 -586.22,-850.08 -602.13,-1361.92 l -0.06,-0.59 c -3.73,-61.15 -1.91,-122.43 -1.91,-183.64 0,-173.18 115.97,-319.17 274.47,-364.83 53.47,-15.41 165.23,-10.15 165.23,-10.15 345.63,0 1742.2,0 1964.38,0 202.07,0 366.19,162.02 369.81,363.23 -1.51,21.12 -2.87,42.28 -4.16,63.46 -6.94,114.18 -10.87,229.17 -10.87,345.1 0,423.8 40.46,879.42 138.51,1302.51 20,86.3 42.4,171.26 67.34,254.31 116.52,388.1 116.83,813.87 -35.78,1192.3" /><path
         id="path28"
         style="fill:#383533;fill-opacity:1;fill-rule:nonzero;stroke:none"
         d="m 4655.89,3996.81 h 1959.45 c 1.62,0 3.4,0 4.91,0 202.07,0 366.21,162.02 369.82,363.23 -1.52,21.12 -2.87,42.28 -4.15,63.46 -6.96,114.18 -10.88,229.17 -10.88,345.1 0,391.65 34.66,810.42 117.29,1205.63 -127.53,-481.49 -676.91,-1967.27 -2601.69,-1967.27 21.1,-6.08 51.23,-8.91 80,-10.15 h 85.25" /><path
         id="path30"
         style="fill:#3f3b38;fill-opacity:1;fill-rule:nonzero;stroke:none"
         d="m 5468.13,8586.32 c 33.51,0 257.13,0 257.13,0 0,61.51 0,474.87 0,474.87 0,0 -290.63,-474.87 -257.13,-474.87" /><path
         id="path32"
         style="fill:#565656;fill-opacity:1;fill-rule:nonzero;stroke:none"
         d="m 4490.7,7732.83 c -169.35,-212.51 -331.49,-415.98 -331.48,-415.99 -46.44,-55.38 -72.31,-128.61 -65.5,-207.97 8.53,-99.41 69.62,-184.75 154.76,-228.48 -0.37,13.63 -0.6,27.31 -0.6,41.03 0,299.73 89.38,578.54 242.82,811.41" /></g></g></svg>