<?xml version="1.0" encoding="UTF-8" standalone="no"?>
<svg
   xmlns:dc="http://purl.org/dc/elements/1.1/"
   xmlns:cc="http://creativecommons.org/ns#"
   xmlns:rdf="http://www.w3.org/1999/02/22-rdf-syntax-ns#"
   xmlns:svg="http://www.w3.org/2000/svg"
   xmlns="http://www.w3.org/2000/svg"
   viewBox="0 0 1496 1496"
   height="1496"
   width="1496"
   xml:space="preserve"
   id="svg2"
   version="1.1"><metadata
     id="metadata8"><rdf:RDF><cc:Work
         rdf:about=""><dc:format>image/svg+xml</dc:format><dc:type
           rdf:resource="http://purl.org/dc/dcmitype/StillImage" /><dc:title></dc:title></cc:Work></rdf:RDF></metadata><defs
     id="defs6" /><g
     transform="matrix(1.3333333,0,0,-1.3333333,0,1496)"
     id="g10"><g
       transform="scale(0.1)"
       id="g12"><path
         id="path14"
         style="fill:#ffffff;fill-opacity:1;fill-rule:nonzero;stroke:none"
         d="M 11220,0 H 0 V 11220 H 11220 V 0" /><path
         id="path16"
         style="fill:#44403d;fill-opacity:1;fill-rule:nonzero;stroke:none"
         d="m 6424.94,7794.91 c 0,-456.47 -370.03,-826.5 -826.49,-826.5 -456.47,0 -826.51,370.03 -826.51,826.5 0,456.46 370.04,826.5 826.51,826.5 456.46,0 826.49,-370.04 826.49,-826.5" /><path
         id="path18"
         style="fill:#44403d;fill-opacity:1;fill-rule:nonzero;stroke:none"
         d="m 6418.86,6840.21 c -223.75,136.35 -486.47,215.01 -767.66,215.01 -281.2,0 -543.91,-78.66 -767.66,-215.01 -63.93,-38.96 -36.16,-137.5 38.71,-137.5 h 728.95 728.95 c 74.86,0 102.63,98.54 38.71,137.5" /><path
         id="path20"
         style="fill:#383533;fill-opacity:1;fill-rule:nonzero;stroke:none"
         d="M 6572.14,4731.82 H 4624.82 c -65.46,0 -106.68,-70.54 -74.53,-127.58 l 188.34,-227.41 h 1719.65 l 188.36,227.49 c 32.12,57.01 -9.06,127.5 -74.5,127.5" /><path
         id="path22"
         style="fill:#44403d;fill-opacity:1;fill-rule:nonzero;stroke:none"
         d="m 7136.88,3547.52 c 0,116.77 -63.27,218.76 -157.41,273.56 l -2.03,1.1 2.03,1.73 c -241.01,132.49 -421.65,299.46 -525.96,552.91 H 5598.45 4743.39 C 4639.07,4123.37 4458.43,3956.4 4217.42,3823.91 l 2.02,-1.73 -2.02,-1.1 C 4123.28,3766.28 4060,3664.29 4060,3547.52 c 0,-174.7 141.62,-316.31 316.31,-316.31 h 2467.38 v 1.17 c 163.87,11.88 293.19,148.25 293.19,315.14" /><path
         id="path24"
         style="fill:#383533;fill-opacity:1;fill-rule:nonzero;stroke:none"
         d="M 6843.69,3231.21 H 4376.32 c -57.92,0 -112.21,-15.57 -158.9,-42.75 C 4123.28,3133.67 4060,3031.68 4060,2914.9 h 316.32 316.3 1834.76 316.31 316.31 c 0,174.69 -141.61,316.31 -316.31,316.31" /><path
         id="path26"
         style="fill:#44403d;fill-opacity:1;fill-rule:nonzero;stroke:none"
         d="M 5610,2914.9 H 4060 V 2598.59 H 7160 V 2914.9 H 5610" /><path
         id="path28"
         style="fill:#383533;fill-opacity:1;fill-rule:nonzero;stroke:none"
         d="m 6030.68,8499.18 c 82.35,-128.55 130.09,-281.39 130.09,-445.39 0,-456.66 -370.19,-826.86 -826.86,-826.86 -158.61,0 -306.75,44.68 -432.61,122.11 146.95,-229.43 404.11,-381.48 696.78,-381.48 456.67,0 826.86,370.2 826.86,826.87 0,298.06 -157.73,559.25 -394.26,704.75" /><path
         id="path30"
         style="fill:#565656;fill-opacity:1;fill-rule:nonzero;stroke:none"
         d="m 4916.05,7717.79 c 0,403.12 326.8,729.91 729.92,729.91 235.62,0 445.13,-111.68 578.59,-284.96 -126.04,218.8 -362.27,366.11 -632.92,366.11 -403.12,0 -729.91,-326.79 -729.91,-729.91 0,-167.49 56.45,-321.77 151.32,-444.94 -61.7,107.09 -97,231.32 -97,363.79" /><path
         id="path32"
         style="fill:#383533;fill-opacity:1;fill-rule:nonzero;stroke:none"
         d="m 6418.86,6840.21 c -151.22,92.15 -320.29,157.82 -500.77,190.8 l -6.84,-1.9 -913.47,-326.4 h 653.42 728.95 c 74.86,0 102.63,98.54 38.71,137.5" /><path
         id="path34"
         style="fill:#44403d;fill-opacity:1;fill-rule:nonzero;stroke:none"
         d="m 6401.69,4731.82 c -239.46,541.95 -381.05,1159.52 -403.58,1792.9 12.17,100.27 97.43,177.99 200.97,177.99 h -204.52 -792.23 -204.55 c 103.56,0 188.81,-77.72 200.98,-177.99 -22.89,-638.42 -167.92,-1245.28 -413.08,-1792.9 h 1616.01" /><path
         id="path36"
         style="fill:#565656;fill-opacity:1;fill-rule:nonzero;stroke:none"
         d="m 4222.99,3559.21 c 0,105.42 58.39,197.14 144.53,244.81 -123.65,-4.73 -222.52,-106.19 -222.52,-231.01 0,-107.74 73.71,-198.01 173.38,-223.81 -58.36,51.26 -95.39,126.22 -95.39,210.01" /></g></g></svg>