<?xml version="1.0" encoding="UTF-8" standalone="no"?>
<!-- Created with Inkscape (http://www.inkscape.org/) -->

<svg
   xmlns:dc="http://purl.org/dc/elements/1.1/"
   xmlns:cc="http://creativecommons.org/ns#"
   xmlns:rdf="http://www.w3.org/1999/02/22-rdf-syntax-ns#"
   xmlns:svg="http://www.w3.org/2000/svg"
   xmlns="http://www.w3.org/2000/svg"
   xmlns:sodipodi="http://sodipodi.sourceforge.net/DTD/sodipodi-0.dtd"
   xmlns:inkscape="http://www.inkscape.org/namespaces/inkscape"
   version="1.1"
   id="svg2"
   xml:space="preserve"
   width="1496"
   height="1496"
   viewBox="0 0 1496 1496"
   sodipodi:docname="pigeon.svg"
   inkscape:version="0.92.4 (5da689c313, 2019-01-14)"><metadata
     id="metadata8"><rdf:RDF><cc:Work
         rdf:about=""><dc:format>image/svg+xml</dc:format><dc:type
           rdf:resource="http://purl.org/dc/dcmitype/StillImage" /><dc:title /></cc:Work></rdf:RDF></metadata><defs
     id="defs6" /><sodipodi:namedview
     pagecolor="#ffffff"
     bordercolor="#666666"
     borderopacity="1"
     objecttolerance="10"
     gridtolerance="10"
     guidetolerance="10"
     inkscape:pageopacity="0"
     inkscape:pageshadow="2"
     inkscape:window-width="1920"
     inkscape:window-height="1001"
     id="namedview4"
     showgrid="false"
     inkscape:zoom="0.63101604"
     inkscape:cx="515.12578"
     inkscape:cy="684.14705"
     inkscape:window-x="-9"
     inkscape:window-y="-9"
     inkscape:window-maximized="1"
     inkscape:current-layer="g10" /><g
     id="g10"
     inkscape:groupmode="layer"
     inkscape:label="ink_ext_XXXXXX"
     transform="matrix(1.3333333,0,0,-1.3333333,0,1496)"><g
       id="g12"
       transform="matrix(0.20391561,0,0,0.2397755,-663.94145,-784.14057)"><path
         d="m 5763.4,4816.39 c -161.51,-185.69 -396.3,-297.41 -637.86,-215.42 -286.85,97.36 -437.59,431.71 -463.85,716.15 -25.24,273.26 47.25,548.05 160.21,798.15 234.63,519.47 468.3,1058.85 550.06,1629.07 154.82,-269.46 224.16,-587.21 195.66,-896.67 124.28,122.09 230.44,262.6 313.89,415.53 27.83,-297.89 -4.16,-601.24 -93.52,-886.77 128.44,33.59 242.34,119.66 309.74,234.04 20.47,-42.47 21.88,-91.32 21.91,-138.47 0.21,-448.81 -90.27,-893.11 -208.39,-1326.11 -31.96,-117.16 -68.13,-237.85 -147.85,-329.5"
         style="fill:#a2b5b4;fill-opacity:1;fill-rule:nonzero;stroke:none"
         id="path26"
         inkscape:connector-curvature="0" /><path
         d="m 5787.99,6376.43 v 0 c 0.27,0.07 0.55,0.14 0.82,0.22 -0.27,-0.08 -0.55,-0.15 -0.82,-0.22 m 0,0 v 0 c 0.85,2.72 1.69,5.44 2.53,8.16 -0.84,-2.72 -1.68,-5.44 -2.53,-8.16 m 0.87,0.23 c 2.21,0.58 4.41,1.18 6.61,1.79 -0.6,-0.17 -1.2,-0.33 -1.8,-0.5 -0.12,-0.03 -0.24,-0.06 -0.35,-0.09 -0.03,-0.01 -0.05,-0.02 -0.08,-0.02 -1.46,-0.4 -2.91,-0.79 -4.38,-1.18 m 1.76,8.25 c 0.05,0.14 0.09,0.28 0.13,0.42 -0.04,-0.14 -0.09,-0.28 -0.13,-0.42"
         style="fill:#e6e1de;fill-opacity:1;fill-rule:nonzero;stroke:none"
         id="path28"
         inkscape:connector-curvature="0" /><path
         d="m 5787.99,6376.43 v 0 c 0.27,0.07 0.55,0.14 0.82,0.22 0.02,0 0.04,0.01 0.05,0.01 1.47,0.39 2.92,0.78 4.38,1.18 -1.74,-0.48 -3.5,-0.95 -5.25,-1.41 m 0,0 0.26,0.89 c 4.97,15.88 9.73,31.84 14.32,47.83 2.9,10.04 5.6,20.13 8.36,30.21 1.51,5.54 3.07,11.09 4.54,16.65 3.5,13.23 6.84,26.49 10.1,39.78 0.45,1.88 0.92,3.74 1.37,5.63 3.61,14.83 7.05,29.7 10.36,44.62 l 0.01,0.06 c -13.17,-59.51 -28.6,-118.52 -46.56,-176.77 -0.04,-0.14 -0.08,-0.28 -0.13,-0.42 -0.03,-0.11 -0.06,-0.21 -0.1,-0.32 -0.84,-2.72 -1.68,-5.44 -2.53,-8.16 m 5.33,1.43 c 0.11,0.03 0.23,0.06 0.35,0.09 -0.12,-0.03 -0.24,-0.06 -0.35,-0.09"
         style="fill:#92a3a3;fill-opacity:1;fill-rule:nonzero;stroke:none"
         id="path30"
         inkscape:connector-curvature="0" /><path
         d="m 5568.07,6852.71 c 0.01,0.13 0.02,0.25 0.04,0.38 0,0.04 0,0.08 0.01,0.11 0.01,0.2 0.03,0.4 0.05,0.59 0.08,0.91 0.16,1.82 0.23,2.73 -0.1,-1.27 -0.22,-2.54 -0.33,-3.81 m 0.37,4.2 c 0.03,0.36 0.06,0.72 0.09,1.07 -0.03,-0.35 -0.06,-0.71 -0.09,-1.07"
         style="fill:#e6e1de;fill-opacity:1;fill-rule:nonzero;stroke:none"
         id="path32"
         inkscape:connector-curvature="0" /><path
         d="m 5568.11,6853.09 c 0,0.04 0,0.08 0.01,0.11 -0.01,-0.03 -0.01,-0.07 -0.01,-0.11 m 0.06,0.7 c 0.74,8.53 1.4,17.06 2,25.59 0.14,2.01 0.24,4.03 0.38,6.05 0.59,8.92 1.11,17.85 1.54,26.77 0.07,1.45 0.13,2.88 0.19,4.32 0.44,9.79 0.79,19.58 1.04,29.37 l 0.04,1.75 c 0.26,10.67 0.41,21.32 0.44,31.98 l 0.01,0.09 c -0.13,-40.62 -1.84,-81.24 -5.28,-121.73 -0.03,-0.35 -0.06,-0.71 -0.09,-1.07 -0.01,-0.13 -0.02,-0.26 -0.04,-0.39 -0.07,-0.91 -0.15,-1.82 -0.23,-2.73"
         style="fill:#92a3a3;fill-opacity:1;fill-rule:nonzero;stroke:none"
         id="path34"
         inkscape:connector-curvature="0" /><path
         d="m 5795.47,6378.45 c 6.12,1.72 12.2,3.56 18.25,5.51 1.46,0.47 2.87,1.02 4.32,1.49 7.29,2.44 14.56,4.97 21.73,7.74 l 2.63,1.05 c 7.84,3.08 15.63,6.31 23.31,9.78 l 0.72,0.33 c 8.23,3.72 16.36,7.65 24.38,11.78 84.18,43.45 156.49,110.09 205.18,191.41 -48.72,-81.37 -121.02,-148.18 -205.28,-191.62 0.05,0.08 0.09,0.15 0.14,0.23 -30.44,-15.71 -62.38,-28.48 -95.38,-37.7 m 300.56,229.15 c 0.18,0.3 0.37,0.62 0.55,0.93 -0.18,-0.31 -0.37,-0.62 -0.55,-0.93 m 0.58,0.97 c 0.16,0.28 0.33,0.55 0.49,0.83 -0.17,-0.28 -0.33,-0.55 -0.49,-0.83 m 0.61,1.03 c 0.17,0.29 0.34,0.58 0.51,0.87 -0.17,-0.29 -0.34,-0.58 -0.51,-0.87 m -529.6,238.07 c 0.15,1.68 0.3,3.36 0.45,5.04 -0.15,-1.68 -0.3,-3.36 -0.45,-5.04 1.24,1.22 2.41,2.5 3.65,3.72 14.19,14.03 28.22,28.24 41.94,42.76 7.81,8.26 15.32,16.79 22.97,25.2 6.95,7.63 14.04,15.13 20.83,22.87 9.63,10.96 18.93,22.2 28.28,33.4 4.54,5.43 9.24,10.73 13.72,16.22 9.42,11.54 18.49,23.36 27.62,35.15 57.23,73.9 108.86,152.14 153.75,234.13 -41.69,-76.15 -89.02,-149.22 -141.41,-218.45 0.01,0.02 0.02,0.03 0.02,0.05 -29.37,-38.82 -60.34,-76.44 -92.8,-112.73 -0.12,-0.12 -0.22,-0.24 -0.33,-0.37 -0.31,-0.34 -0.62,-0.68 -0.92,-1.02 -0.26,-0.29 -0.53,-0.59 -0.79,-0.88 -0.15,-0.17 -0.3,-0.34 -0.45,-0.5 -24.53,-27.3 -49.9,-53.83 -76.08,-79.55 m 315.39,398.83 c -0.01,0.14 -0.03,0.28 -0.04,0.43 0.02,-0.16 0.03,-0.28 0.04,-0.43 m -0.12,1.42 c -0.02,0.22 -0.04,0.41 -0.06,0.63 0.02,-0.2 0.04,-0.43 0.06,-0.63 m -0.13,1.51 c -0.05,0.47 -0.09,0.98 -0.13,1.45 0.04,-0.48 0.08,-0.96 0.13,-1.45 m -0.17,1.91 c -0.04,0.38 -0.07,0.8 -0.11,1.18 0.04,-0.4 0.07,-0.78 0.11,-1.18 m -0.15,1.71 c -0.03,0.36 -0.07,0.75 -0.1,1.12 0.03,-0.37 0.06,-0.75 0.1,-1.12 m -0.15,1.6 c -0.04,0.48 -0.08,0.95 -0.12,1.43 0.04,-0.48 0.08,-0.95 0.12,-1.43 m -0.14,1.6 c -0.05,0.54 -0.1,1.1 -0.15,1.65 0.05,-0.54 0.1,-1.11 0.15,-1.65 m -0.17,1.91 c -0.04,0.44 -0.09,0.91 -0.13,1.35 0.05,-0.46 0.09,-0.89 0.13,-1.35 m -0.17,1.77 c -0.03,0.42 -0.07,0.85 -0.11,1.27 0.04,-0.42 0.08,-0.85 0.11,-1.27 m -1.34,1.36 c 0.34,0.63 0.7,1.27 1.04,1.91 -0.34,-0.64 -0.7,-1.28 -1.04,-1.91 m 1.19,0.29 c -0.05,0.54 -0.1,1.07 -0.15,1.62 0.05,-0.54 0.1,-1.08 0.15,-1.62 m -495.92,458.23 c 0,0.01 0,0.01 -0.01,0.02 l 0.01,-0.02 m -0.74,1.35 c -0.01,0.02 -0.04,0.06 -0.04,0.08 0.01,-0.03 0.02,-0.05 0.04,-0.08 m -0.77,1.39 c -0.01,0.02 -0.01,0.02 -0.02,0.04 0.01,-0.01 0.02,-0.03 0.02,-0.04 m -2.86,5.16 c -0.08,0.15 -0.16,0.29 -0.24,0.44 0.08,-0.15 0.16,-0.3 0.24,-0.44 m -0.76,1.37 c -0.11,0.18 -0.21,0.37 -0.31,0.55 0.1,-0.19 0.2,-0.37 0.31,-0.55 m -0.8,1.42 c -0.12,0.22 -0.23,0.41 -0.35,0.62 0.12,-0.21 0.23,-0.4 0.35,-0.62 m -0.82,1.46 c -0.12,0.21 -0.25,0.44 -0.37,0.66 0.13,-0.23 0.24,-0.43 0.37,-0.66 m -0.82,1.46 c -0.16,0.29 -0.3,0.53 -0.46,0.81 0.16,-0.27 0.31,-0.54 0.46,-0.81 m -1.1,1.95 c -0.17,0.29 -0.35,0.62 -0.52,0.91 0.17,-0.29 0.35,-0.62 0.52,-0.91 m -0.9,1.59 c -0.15,0.26 -0.31,0.54 -0.46,0.8 0.16,-0.26 0.31,-0.53 0.46,-0.8 m -0.84,1.48 c -0.15,0.27 -0.32,0.56 -0.47,0.82 0.16,-0.27 0.31,-0.55 0.47,-0.82 m -0.85,1.5 c -0.16,0.28 -0.31,0.54 -0.47,0.82 0.16,-0.28 0.31,-0.54 0.47,-0.82 m -0.84,1.46 c -0.19,0.33 -0.35,0.62 -0.54,0.95 0.18,-0.31 0.36,-0.64 0.54,-0.95 m -0.84,1.47 c -0.28,0.49 -0.56,0.98 -0.84,1.47 0.28,-0.49 0.56,-0.98 0.84,-1.47"
         style="fill:#e6e1de;fill-opacity:1;fill-rule:nonzero;stroke:none"
         id="path36"
         inkscape:connector-curvature="0" /><path
         d="m 5066.19,5036.41 c -137.32,24.72 -264.02,76.49 -384.23,150.25 -6.97,31.95 -12.43,63.81 -16.41,95.22 -1.5,11.82 -2.79,23.57 -3.86,35.24 -3.41,36.82 -5.03,73.68 -5.02,110.49 0.05,236.38 67.49,471.27 165.23,687.66 234.63,519.47 468.3,1058.85 550.06,1629.07 v 0 c 0.28,-0.49 0.56,-0.98 0.84,-1.47 0.1,-0.17 0.2,-0.35 0.3,-0.52 0.19,-0.33 0.35,-0.62 0.54,-0.95 0.12,-0.21 0.25,-0.43 0.37,-0.64 0.16,-0.28 0.31,-0.54 0.47,-0.82 0.13,-0.23 0.25,-0.45 0.38,-0.68 0.15,-0.26 0.32,-0.55 0.47,-0.82 0.13,-0.22 0.25,-0.45 0.38,-0.68 0.15,-0.26 0.31,-0.54 0.46,-0.8 0.13,-0.23 0.26,-0.45 0.38,-0.68 0.17,-0.29 0.35,-0.62 0.52,-0.91 0.22,-0.39 0.43,-0.76 0.64,-1.14 0.16,-0.28 0.3,-0.52 0.46,-0.81 0.15,-0.27 0.3,-0.54 0.45,-0.8 0.12,-0.22 0.25,-0.45 0.37,-0.66 0.15,-0.27 0.32,-0.57 0.47,-0.84 0.12,-0.21 0.23,-0.4 0.35,-0.62 0.16,-0.28 0.33,-0.59 0.49,-0.87 0.1,-0.18 0.2,-0.37 0.31,-0.55 0.17,-0.31 0.34,-0.62 0.52,-0.93 0.08,-0.15 0.16,-0.29 0.24,-0.44 0.95,-1.71 1.9,-3.41 2.84,-5.12 0.01,-0.02 0.01,-0.02 0.02,-0.04 0.25,-0.44 0.48,-0.87 0.73,-1.31 0,-0.02 0.03,-0.06 0.04,-0.08 0.24,-0.44 0.49,-0.88 0.73,-1.33 0.01,-0.01 0.01,-0.01 0.01,-0.02 123.91,-225.48 188.89,-482.87 188.06,-740.1 h 0.01 c -5.98,-12.87 -11.99,-25.88 -18.08,-39.19 -123.07,-268.89 -230.21,-540.99 -231.28,-543.71 l 113.62,-44.66 c 0.98,2.5 99.52,252.75 215.5,508.66 31.32,69.11 59.71,129.34 85.4,181.86 52.39,69.23 99.72,142.3 141.41,218.45 0.03,0.06 0.06,0.11 0.09,0.17 0.34,0.63 0.7,1.27 1.04,1.91 v 0 0 c 0.05,-0.55 0.1,-1.08 0.15,-1.62 0.02,-0.13 0.03,-0.25 0.04,-0.38 0.04,-0.42 0.08,-0.85 0.11,-1.27 0.02,-0.14 0.03,-0.28 0.04,-0.42 0.04,-0.44 0.09,-0.91 0.13,-1.35 0,-0.09 0.01,-0.18 0.02,-0.26 0.05,-0.55 0.1,-1.11 0.15,-1.65 0.01,-0.06 0.01,-0.12 0.02,-0.17 0.04,-0.48 0.08,-0.95 0.12,-1.43 0.02,-0.17 0.03,-0.31 0.05,-0.48 0.03,-0.37 0.07,-0.76 0.1,-1.12 0.01,-0.18 0.03,-0.36 0.04,-0.53 0.04,-0.38 0.07,-0.8 0.11,-1.18 0.01,-0.15 0.03,-0.31 0.04,-0.46 0.04,-0.47 0.08,-0.98 0.13,-1.45 0.02,-0.3 0.05,-0.58 0.07,-0.88 0.02,-0.22 0.04,-0.41 0.06,-0.63 0.03,-0.33 0.05,-0.66 0.08,-0.99 0.01,-0.15 0.03,-0.29 0.04,-0.43 19.63,-228.68 3.92,-460.32 -45.7,-684.4 v 0 0 C 5772.62,6458.78 5719,6365.8 5693.11,6304.29 l -187.22,-444.76 53.54,-22.54 c -153.45,-134.4 -286.34,-290.67 -379.27,-471.51 -50.79,-98.81 -91.24,-212.04 -113.97,-329.07 m 599.35,887.72 140.08,332.8 c 16.76,39.79 47.01,95.22 85.09,158.99 84.26,43.44 156.56,110.25 205.28,191.62 0.01,0.02 0.02,0.04 0.04,0.06 0.18,0.31 0.37,0.62 0.55,0.93 0.01,0.02 0.02,0.02 0.03,0.04 0.16,0.28 0.32,0.55 0.49,0.83 0.04,0.07 0.08,0.14 0.12,0.2 0.17,0.29 0.34,0.58 0.51,0.87 v 0 c 20.47,-42.47 21.88,-91.32 21.91,-138.47 0,-0.88 0,-1.76 0,-2.63 -0.01,-39.45 -0.73,-78.86 -2.09,-118.23 -1.45,-41.47 -3.62,-82.94 -6.47,-124.32 -95.19,-64.11 -190.74,-127.06 -285.97,-189.41 -54.43,-35.64 -107.83,-73.37 -159.57,-113.28 m -97.92,923.54 v 0 c 26.18,25.72 51.55,52.25 76.08,79.55 -24.53,-27.3 -49.9,-53.83 -76.08,-79.55 m 76.53,80.05 c 0.26,0.29 0.53,0.59 0.79,0.88 -0.27,-0.3 -0.53,-0.59 -0.79,-0.88 m 1.71,1.9 c 0.11,0.13 0.21,0.25 0.33,0.37 -0.11,-0.12 -0.22,-0.24 -0.33,-0.37"
         style="fill:#92a3a3;fill-opacity:1;fill-rule:nonzero;stroke:none"
         id="path38"
         inkscape:connector-curvature="0" /><path
         d="m 5793.24,6377.84 c 0.03,0 0.05,0.01 0.08,0.02 -0.03,-0.01 -0.05,-0.02 -0.08,-0.02 m 0.43,0.11 c 0.6,0.17 1.2,0.33 1.8,0.5 33,9.22 64.94,21.99 95.38,37.7 -0.05,-0.08 -0.09,-0.15 -0.14,-0.23 -30.93,-15.95 -63.47,-28.75 -97.04,-37.97"
         style="fill:#cfcbc9;fill-opacity:1;fill-rule:nonzero;stroke:none"
         id="path40"
         inkscape:connector-curvature="0" /><path
         d="m 5559.43,5836.99 -53.54,22.54 187.22,444.76 c 25.89,61.51 79.51,154.49 144.2,257.81 v 0 l -0.01,-0.06 c -3.31,-14.92 -6.75,-29.79 -10.36,-44.62 -0.45,-1.89 -0.92,-3.75 -1.37,-5.63 -3.26,-13.29 -6.6,-26.55 -10.1,-39.78 -1.47,-5.56 -3.03,-11.11 -4.54,-16.65 -2.76,-10.08 -5.46,-20.17 -8.36,-30.21 -4.59,-15.99 -9.35,-31.95 -14.32,-47.83 l -0.26,-0.89 v 0 0 0 0 0 c 1.75,0.46 3.51,0.93 5.25,1.41 0.03,0 0.05,0.01 0.08,0.02 0.11,0.03 0.23,0.06 0.35,0.09 33.57,9.22 66.11,22.02 97.04,37.97 -38.08,-63.77 -68.33,-119.2 -85.09,-158.99 l -140.08,-332.8 c -36.26,-27.97 -71.7,-57 -106.11,-87.14"
         style="fill:#849394;fill-opacity:1;fill-rule:nonzero;stroke:none"
         id="path42"
         inkscape:connector-curvature="0" /><path
         d="m 5567.62,6847.67 c 0.16,1.82 0.32,3.61 0.49,5.42 -0.02,-0.13 -0.03,-0.25 -0.04,-0.38 -0.15,-1.68 -0.3,-3.36 -0.45,-5.04 v 0 m 0.5,5.53 c 0.01,0.19 0.03,0.4 0.05,0.59 -0.02,-0.19 -0.04,-0.39 -0.05,-0.59 m 75.58,74.02 c 0.15,0.16 0.3,0.33 0.45,0.5 -0.15,-0.17 -0.3,-0.34 -0.45,-0.5 m 1.24,1.38 c 0.3,0.34 0.61,0.68 0.92,1.02 -0.31,-0.34 -0.62,-0.68 -0.92,-1.02 m 1.25,1.39 c 32.46,36.29 63.43,73.91 92.8,112.73 0,-0.02 -0.01,-0.03 -0.02,-0.05 -29.37,-38.81 -60.33,-76.41 -92.78,-112.68"
         style="fill:#cfcbc9;fill-opacity:1;fill-rule:nonzero;stroke:none"
         id="path44"
         inkscape:connector-curvature="0" /><path
         d="m 5438.07,6352.15 -113.62,44.66 c 1.07,2.72 108.21,274.82 231.28,543.71 6.09,13.31 12.1,26.32 18.08,39.19 v 0 0 l -0.01,-0.09 c -0.03,-10.66 -0.18,-21.31 -0.44,-31.98 l -0.04,-1.75 c -0.25,-9.79 -0.6,-19.58 -1.04,-29.37 -0.06,-1.44 -0.12,-2.87 -0.19,-4.32 -0.43,-8.92 -0.95,-17.85 -1.54,-26.77 -0.14,-2.02 -0.24,-4.04 -0.38,-6.05 -0.6,-8.53 -1.26,-17.06 -2,-25.59 -0.02,-0.19 -0.04,-0.4 -0.05,-0.59 -0.01,-0.03 -0.01,-0.07 -0.01,-0.11 -0.17,-1.81 -0.33,-3.6 -0.49,-5.42 v 0 0 c 26.18,25.72 51.55,52.25 76.08,79.55 0.15,0.16 0.3,0.33 0.45,0.5 0.26,0.29 0.52,0.58 0.79,0.88 0.3,0.34 0.61,0.68 0.92,1.02 0.11,0.13 0.22,0.25 0.33,0.37 32.45,36.27 63.41,73.87 92.78,112.68 -25.69,-52.52 -54.08,-112.75 -85.4,-181.86 -115.98,-255.91 -214.52,-506.16 -215.5,-508.66"
         style="fill:#849394;fill-opacity:1;fill-rule:nonzero;stroke:none"
         id="path46"
         inkscape:connector-curvature="0" /><path
         d="m 4249.35,5560.89 c 389.36,-427.25 794.59,-660.97 1396.75,-478.21 314.67,95.51 548.87,222.42 882.88,217.64 366.3,-5.24 711.15,-19.43 1054.11,-166.05 607.26,-259.63 1083.6,-840.53 1151.91,-1497.43 -143.43,238.19 -435.48,415.19 -718.66,389.78 -146.46,-13.15 -285.67,-67.11 -423.49,-118.34 -235.64,-87.6 -473.69,-168.74 -713.78,-243.3 -807.02,-250.6 -2417.01,-411.15 -2825.29,585.01 -67.57,164.84 -160.86,325.1 -257.76,474.01 -45.86,70.46 -82.54,133.59 -143.32,192.16 -20.59,41.17 -107.74,125.57 -143.79,160.24 -61.95,59.58 -149.16,77.25 -229.71,105.61 44.28,17.07 87.37,37.21 128.87,60.24 32.21,17.88 64.87,38.95 82.3,71.4 21.57,40.14 18.98,87.3 34.35,129.51 15.83,43.5 43.09,82.36 75.21,115.4 112.21,115.42 276.64,192.52 438.08,146.05 85.44,-24.58 151.78,-78.37 211.34,-143.72"
         style="fill:#a2b5b4;fill-opacity:1;fill-rule:nonzero;stroke:none"
         id="path48"
         inkscape:connector-curvature="0" /><path
         d="m 5930.99,4023.23 c -164.28,0 -322.13,50.88 -443.26,168.99 61.69,-17.3 126.33,-25.43 192.02,-25.43 85.03,0 171.83,13.63 256.13,38.62 133.24,39.49 242.27,133.74 345.11,227.19 284.6,258.65 558.16,532.96 793.31,836.41 104.61,-13.88 208.2,-34.2 311.28,-64.25 -248.04,-335.25 -544.15,-634.73 -853.35,-915.72 -102.84,-93.46 -211.88,-187.71 -345.11,-227.2 -84.31,-24.98 -171.08,-38.61 -256.13,-38.61"
         style="fill:#92a3a3;fill-opacity:1;fill-rule:nonzero;stroke:none"
         id="path50"
         inkscape:connector-curvature="0" /><path
         d="m 3821.92,5391.83 c 0,-44.66 -36.2,-80.85 -80.85,-80.85 -44.65,0 -80.85,36.19 -80.85,80.85 0,44.65 36.2,80.84 80.85,80.84 44.65,0 80.85,-36.19 80.85,-80.84"
         style="fill:#534e3e;fill-opacity:1;fill-rule:nonzero;stroke:none"
         id="path52"
         inkscape:connector-curvature="0" /><path
         d="m 5935.88,4205.41 c -269.96,-80 -565.21,-43.59 -747.98,183.94 -217.03,270.19 -157.13,685.47 -7.74,976.13 143.51,279.25 382.29,499.94 644.95,671.93 545.57,357.22 1102.45,734.26 1531.66,1234.38 -16.11,-355.18 -144.39,-704.45 -361.99,-985.61 194.95,41.47 383.72,111.88 558.21,208.21 -156.14,-304.61 -373.37,-577.75 -635.02,-798.42 144.61,-46.48 307.4,-33.39 442.72,35.61 -6.33,-53.57 -34.99,-101.59 -63.92,-147.1 -275.51,-433.31 -635.78,-806.54 -1015.78,-1151.88 -102.84,-93.45 -211.87,-187.7 -345.11,-227.19"
         style="fill:#a2b5b4;fill-opacity:1;fill-rule:nonzero;stroke:none"
         id="path54"
         inkscape:connector-curvature="0" /><path
         d="m 7041.36,5670.98 c -40.55,3.69 -80.73,11.6 -119.6,23.79 38.97,-12.22 79.23,-19.96 119.88,-23.65 -0.09,-0.05 -0.18,-0.09 -0.28,-0.14 m -119.67,23.81 c -0.24,0.07 -0.5,0.16 -0.74,0.23 0.25,-0.08 0.49,-0.15 0.74,-0.23 m -0.98,0.31 c -0.25,0.08 -0.51,0.16 -0.75,0.24 0.25,-0.08 0.5,-0.16 0.75,-0.24 m -1.13,0.36 c -0.15,0.04 -0.3,0.09 -0.45,0.14 0.15,-0.05 0.3,-0.1 0.45,-0.14 m -0.82,0.26 c -0.27,0.08 -0.53,0.17 -0.79,0.25 0.26,-0.08 0.53,-0.17 0.79,-0.25"
         style="fill:#e6e1de;fill-opacity:1;fill-rule:nonzero;stroke:none"
         id="path56"
         inkscape:connector-curvature="0" /><path
         d="m 6407.66,5255.55 -79.51,114.83 453.93,314.25 c 62.77,43.46 171.64,100.27 297.56,160.24 -51.8,-51.86 -105.65,-101.64 -161.67,-148.9 v 0 0 0 0 c 0.26,-0.08 0.52,-0.17 0.79,-0.25 0.12,-0.04 0.24,-0.08 0.37,-0.12 0.15,-0.05 0.3,-0.1 0.45,-0.14 0.13,-0.04 0.25,-0.08 0.38,-0.12 0.24,-0.08 0.5,-0.16 0.75,-0.24 0.08,-0.03 0.16,-0.05 0.24,-0.08 0.24,-0.07 0.5,-0.16 0.74,-0.23 0.02,-0.01 0.05,-0.02 0.07,-0.02 38.87,-12.19 79.05,-20.1 119.6,-23.79 -75.92,-38.16 -139.16,-73.06 -179.78,-101.18 l -453.92,-314.25"
         style="fill:#92a3a3;fill-opacity:1;fill-rule:nonzero;stroke:none"
         id="path58"
         inkscape:connector-curvature="0" /><path
         d="m 6996.13,6287.94 c 0.15,0.18 0.28,0.35 0.43,0.54 -0.14,-0.18 -0.28,-0.36 -0.43,-0.54 m 1.43,1.85 c 0.09,0.12 0.2,0.26 0.29,0.38 -0.09,-0.13 -0.19,-0.26 -0.29,-0.38 m 99.39,20.92 c 0.03,0.01 0.05,0.01 0.07,0.02 -0.02,-0.01 -0.05,-0.01 -0.07,-0.02 m 2.11,0.57 c 0.27,0.07 0.53,0.14 0.8,0.21 -0.27,-0.07 -0.53,-0.14 -0.8,-0.21 m 2.09,0.56 c 0.49,0.13 0.98,0.27 1.47,0.4 -0.49,-0.13 -0.98,-0.27 -1.47,-0.4 m 2.11,0.57 c 59.74,16.21 118.73,35.15 176.74,56.74 -0.02,-0.01 -0.04,-0.02 -0.05,-0.04 -57.99,-21.57 -116.97,-40.5 -176.69,-56.7"
         style="fill:#e6e1de;fill-opacity:1;fill-rule:nonzero;stroke:none"
         id="path60"
         inkscape:connector-curvature="0" /><path
         d="m 6565.33,5887.51 -82.24,112.9 c 2.71,1.96 273.27,198.76 557.24,382.68 14.07,9.1 27.85,17.97 41.52,26.71 -26.3,-41.03 -54.28,-80.99 -84,-119.63 -0.09,-0.12 -0.2,-0.26 -0.29,-0.38 -0.33,-0.44 -0.67,-0.87 -1,-1.31 -0.15,-0.19 -0.28,-0.36 -0.43,-0.54 -0.45,-0.59 -0.9,-1.18 -1.35,-1.76 v 0 0 0 c 34.26,7.28 68.33,15.47 102.17,24.53 0.02,0.01 0.05,0.01 0.07,0.02 0.68,0.18 1.36,0.36 2.04,0.55 0.27,0.07 0.53,0.14 0.8,0.21 0.43,0.12 0.87,0.24 1.29,0.35 0.49,0.13 0.98,0.27 1.47,0.4 0.22,0.06 0.43,0.11 0.64,0.17 59.72,16.2 118.7,35.13 176.69,56.7 -57.06,-34.9 -121.46,-75.59 -194.15,-123.06 -269.15,-175.74 -517.99,-356.74 -520.47,-358.54"
         style="fill:#92a3a3;fill-opacity:1;fill-rule:nonzero;stroke:none"
         id="path62"
         inkscape:connector-curvature="0" /></g></g></svg>