<?xml version="1.0" encoding="UTF-8" standalone="no"?>
<svg
   xmlns:dc="http://purl.org/dc/elements/1.1/"
   xmlns:cc="http://creativecommons.org/ns#"
   xmlns:rdf="http://www.w3.org/1999/02/22-rdf-syntax-ns#"
   xmlns:svg="http://www.w3.org/2000/svg"
   xmlns="http://www.w3.org/2000/svg"
   viewBox="0 0 1497.3333 1497.3333"
   height="1497.3333"
   width="1497.3333"
   xml:space="preserve"
   id="svg2"
   version="1.1"><metadata
     id="metadata8"><rdf:RDF><cc:Work
         rdf:about=""><dc:format>image/svg+xml</dc:format><dc:type
           rdf:resource="http://purl.org/dc/dcmitype/StillImage" /><dc:title></dc:title></cc:Work></rdf:RDF></metadata><defs
     id="defs6"><clipPath
       id="clipPath72"
       clipPathUnits="userSpaceOnUse"><rect
         transform="scale(1,-1)"
         y="-5021.0415"
         x="4698.0312"
         height="1875"
         width="1875"
         id="rect74"
         style="fill:#f4d7d7;stroke-width:6.90969944" /></clipPath></defs><g
     transform="matrix(1.3333333,0,0,-1.3333333,0,1497.3333)"
     id="g10"><g
       clip-path="url(#clipPath72)"
       transform="matrix(0.5988802,0,0,0.59798293,-2813.1723,-1880.6752)"
       id="g12"><path
         id="path14"
         style="fill:#ffffff;fill-opacity:1;fill-rule:nonzero;stroke:none"
         d="M 11225,5 H 5 V 11225 H 11225 V 5" /><path
         id="path16"
         style="fill:none;stroke:#272525;stroke-width:10;stroke-linecap:butt;stroke-linejoin:miter;stroke-miterlimit:10;stroke-dasharray:none;stroke-opacity:1"
         d="M 11225,5 H 5 v 11220 h 11220 z" /><path
         id="path18"
         style="fill:#004588;fill-opacity:1;fill-rule:nonzero;stroke:none"
         d="m 2460.66,9042.67 c -105.39,0 -191.1,-85.71 -191.1,-191.07 V 4256.93 c 0,-66.97 35.76,-129.9 93.32,-164.17 L 5517.25,2214.29 c 60.27,-35.91 135.2,-35.91 195.53,0 l 3154.34,1878.47 c 57.57,34.27 93.33,97.17 93.33,164.17 V 8851.6 c 0,105.36 -85.72,191.07 -191.08,191.07 z M 5615,2127.64 c -44.36,0 -88.72,11.8 -128.3,35.35 L 2332.33,4041.46 c -75.54,45 -122.47,127.57 -122.47,215.47 V 8851.6 c 0,138.28 112.5,250.76 250.8,250.76 h 6308.71 c 138.27,0 250.77,-112.48 250.77,-250.76 V 4256.93 c 0,-87.93 -46.93,-170.49 -122.47,-215.47 L 5743.33,2162.99 c -39.58,-23.55 -83.97,-35.35 -128.33,-35.35" /><path
         id="path20"
         style="fill:#004588;fill-opacity:1;fill-rule:nonzero;stroke:none"
         d="m 3826.82,5822.52 c 34.19,0 61,8.13 80.44,24.45 19.44,16.33 29.15,38.97 29.15,67.88 0,26.12 -8.66,45.12 -25.98,57.01 -17.33,11.89 -44.97,17.84 -82.92,17.84 h -32.98 c -1.43,-18.66 -2.37,-33.11 -2.83,-43.37 -0.47,-10.29 -0.7,-20.05 -0.7,-29.38 v -68.55 c 0,-9.79 1.16,-16.55 3.53,-20.28 2.33,-3.74 6.75,-5.6 13.34,-5.6 z m 24.6,-241.32 c -3.76,1.66 -9.04,2.47 -15.8,2.47 -6.79,0 -14.05,0 -21.77,0 -7.76,0 -15.25,0 -22.5,0 -7.26,0 -13.47,0 -18.6,0 h -41.47 c -5.6,0 -12.18,0 -19.64,0 -7.52,0 -15.01,0 -22.5,0 -7.49,0 -14.64,0 -21.43,0 -6.79,0 -11.83,-0.81 -15.09,-2.47 l -1.4,2.82 2.1,27.02 3.52,2.83 c 17.78,0 29.96,2.1 36.52,6.33 9.82,6.55 15.92,20.14 18.28,40.74 0.44,7.96 0.78,20.23 1.05,36.81 0.23,16.62 0.34,33.31 0.34,50.16 v 154.33 c 0,16.34 -0.23,29.31 -0.7,38.9 -0.46,9.59 -1.19,19.07 -2.12,28.42 -1.87,12.62 -3.85,21.74 -5.95,27.37 -2.13,5.59 -5.28,10.05 -9.5,13.31 -3.76,2.34 -8.3,3.97 -13.7,4.9 -5.39,0.93 -13.46,1.4 -24.22,1.4 l -3.52,2.86 -2.1,26.84 1.4,2.83 c 12.18,-2.13 24.25,-3.18 36.16,-3.18 11.96,0 21.43,0 28.45,0 h 53.4 c 10.78,0 23.05,0 36.89,0 13.79,0 25.85,0 36.17,0 55.73,0 97.87,-10.4 126.44,-31.18 28.56,-20.78 42.84,-51.74 42.84,-92.83 0,-29.44 -8.54,-56.17 -25.62,-80.21 -17.11,-24.07 -42.49,-44.97 -76.22,-62.72 15.92,-23.93 29.38,-43.4 40.4,-58.41 10.99,-15.04 20.46,-26.99 28.45,-35.91 10.75,-12.67 20.81,-23.25 30.19,-31.68 9.36,-8.45 18.62,-15.5 27.75,-21.13 9.12,-5.62 18.62,-9.85 28.44,-12.67 9.86,-2.8 20.84,-4.67 33.02,-5.6 l 4.23,-2.83 1.4,-26.7 -1.4,-4.57 c -17.81,0 -33.25,0 -46.37,0 -13.11,0 -22.73,0 -28.79,0 -24.84,0 -46.96,6.85 -66.4,20.58 -19.44,13.7 -40.16,37.07 -62.17,70.06 -5.15,7.46 -10.66,15.83 -16.49,25.12 -5.86,9.3 -11.72,18.48 -17.57,27.55 -5.86,9.06 -11.37,17.78 -16.5,26.14 -5.16,8.37 -9.39,15.56 -12.65,21.63 H 3791 c 0,-15.92 0,-29.62 0,-41.1 0,-11.48 0.11,-21.42 0.35,-29.85 0.23,-8.45 0.58,-15.7 1.05,-21.8 0.46,-6.09 0.93,-11.68 1.42,-16.84 1.87,-21.54 7.03,-35.12 15.45,-40.74 3.26,-2.34 7.49,-4 12.65,-4.93 5.13,-0.93 13.79,-1.4 25.97,-1.4 l 2.83,-2.83 2.1,-27.02 -1.4,-2.82" /><path
         id="path22"
         style="fill:#004588;fill-opacity:1;fill-rule:nonzero;stroke:none"
         d="m 4419.69,5811.27 h 92.04 l -44.97,124.34 z m 81.49,240.95 120.84,-318.91 c 4.2,-11.72 7.96,-21.57 11.22,-29.53 3.29,-7.95 5.97,-14.75 8.1,-20.37 2.1,-5.63 3.97,-10.17 5.6,-13.7 1.66,-3.49 3.18,-6.67 4.57,-9.47 5.63,-11.71 11.34,-20.72 17.23,-27.05 5.83,-6.32 11.68,-11.01 17.54,-14.04 5.86,-3.07 11.84,-4.81 17.93,-5.28 6.06,-0.47 12.15,-0.7 18.25,-0.7 l 3.52,-2.8 2.1,-26.7 -1.4,-2.82 c -3.3,0 -8.19,0.35 -14.75,1.07 -6.55,0.71 -13.35,1.06 -20.37,1.06 -7.02,0 -13.7,0 -20.02,0 -6.33,0 -11.13,0 -14.4,0 h -51.3 c -3.26,0 -8.65,0 -16.14,0 -7.49,0 -15.33,0 -23.52,0 -8.22,0 -16.06,0 -23.55,0 -7.49,0 -12.88,0 -16.15,0 l -1.4,0.69 2.1,26.7 2.8,2.8 c 12.18,0 21.45,1.52 27.74,4.57 6.33,3.04 9.51,11.35 9.51,24.93 0,7.49 -1.32,18.16 -3.88,31.97 -2.56,13.81 -8.54,31.01 -17.9,51.64 l -14.77,33.7 h -122.91 l -14.05,-33.7 c -8.45,-20.63 -14.77,-38.17 -18.97,-52.69 -4.23,-14.52 -6.33,-24.83 -6.33,-30.92 0,-11.22 2.34,-18.95 7.03,-23.17 4.66,-4.23 13.11,-6.33 25.3,-6.33 l 3.49,-2.8 2.1,-26.7 -1.39,-0.69 c -3.27,0 -8.43,0 -15.45,0 -7.03,0 -14.4,0 -22.12,0 -7.73,0 -15.1,0 -22.13,0 -7.05,0 -12.21,0 -15.47,0 h -41.45 c -3.26,0 -8.19,0 -14.75,0 -6.55,0 -13.34,0 -20.37,0 -7.02,0 -13.69,-0.35 -20.02,-1.06 -6.32,-0.72 -11.11,-1.07 -14.4,-1.07 l -0.69,2.82 1.39,26.7 3.53,2.8 c 6.09,0 12.15,0.47 18.24,1.4 6.1,0.93 12.19,3.06 18.28,6.32 6.09,3.27 12.06,7.85 17.92,13.7 5.83,5.86 11.81,13.47 17.9,22.85 1.4,2.8 3.53,7.12 6.32,12.97 2.83,5.86 7.26,16.29 13.35,31.27 6.09,14.99 14.52,36.29 25.3,63.92 10.75,27.63 25.04,64.38 42.84,110.29 l 60.42,155.25 49.87,21.08 h 7.72" /><path
         id="path24"
         style="fill:#004588;fill-opacity:1;fill-rule:nonzero;stroke:none"
         d="m 5091.26,6045.89 -2.13,-26.7 -2.8,-2.79 c -7.49,0 -14.51,-0.36 -21.07,-1.05 -6.56,-0.7 -12.18,-2.71 -16.88,-5.98 -4.19,-3.29 -8.07,-7.49 -11.56,-12.65 -3.53,-5.16 -5.28,-14.28 -5.28,-27.39 -0.47,-6.56 -0.82,-12.65 -1.05,-18.28 -0.23,-5.62 -0.47,-12.18 -0.7,-19.67 -0.26,-7.49 -0.35,-16.61 -0.35,-27.4 0,-10.75 0,-24.57 0,-41.44 V 5761.4 c 0,-16.87 0,-30.57 0,-41.09 0,-10.55 0.09,-19.32 0.35,-26.35 0.23,-7.02 0.47,-13 0.7,-17.92 0.23,-4.9 0.58,-10.18 1.05,-15.8 0.93,-13.12 3.03,-22.24 6.33,-27.4 3.26,-5.15 6.78,-9.38 10.51,-12.64 4.23,-3.27 9.74,-5.28 16.53,-5.98 6.79,-0.7 13.93,-1.05 21.42,-1.05 l 2.8,-2.8 2.13,-26.7 -1.43,-0.69 c -3.26,0 -8.66,0 -16.15,0 -7.48,0 -15.21,0 -23.17,0 -7.98,0 -15.71,0 -23.2,0 -7.49,0 -12.88,0 -16.14,0 h -41.45 c -3.29,0 -8.68,0 -16.15,0 -7.52,0 -15.24,0 -23.19,0 -7.96,0 -15.68,0 -23.17,0 -7.49,0 -12.88,0 -16.15,0 l -1.43,0.69 2.13,26.7 3.49,2.8 c 7.5,0 14.64,0.35 21.43,1.05 6.79,0.7 12.07,2.71 15.82,5.98 3.74,3.26 7.11,7.49 10.18,12.64 3.03,5.16 5.5,14.28 7.37,27.4 0,3.27 0.12,7.14 0.35,11.6 0.23,4.43 0.46,9.94 0.7,16.49 0.23,6.56 0.35,14.52 0.35,23.91 0,9.35 0,21.07 0,35.11 v 114.49 c 0,16.41 0,30.22 0,41.44 0,11.25 -0.12,20.84 -0.35,28.8 -0.24,7.98 -0.47,14.78 -0.7,20.37 -0.23,5.63 -0.59,11.25 -1.05,16.88 -0.93,12.18 -3.06,21.07 -6.32,26.7 -3.27,5.62 -6.79,10.05 -10.53,13.34 -4.22,3.27 -9.61,5.28 -16.17,5.98 -6.56,0.69 -13.58,1.05 -21.08,1.05 l -3.49,2.79 -2.13,26.7 1.43,0.7 c 3.27,0 8.66,0 16.15,0 7.49,0 15.21,0 23.17,0 7.95,0 15.67,0 23.19,0 7.47,0 12.86,0 16.15,0 h 41.45 c 3.26,0 8.65,0 16.14,0 7.49,0 15.22,0 23.2,0 7.96,0 15.69,0 23.17,0 7.49,0 12.89,0 16.15,0 l 1.43,-0.7" /><path
         id="path26"
         style="fill:#004588;fill-opacity:1;fill-rule:nonzero;stroke:none"
         d="m 5347.65,5970 c -0.93,7.98 -2.71,15.82 -5.28,23.54 -2.56,7.73 -6.44,13.47 -11.56,17.23 -3.76,2.33 -8.46,3.97 -14.05,4.93 -5.63,0.93 -13.35,1.39 -23.21,1.39 l -3.49,2.77 -2.13,26.38 1.43,2.83 c 4.19,-1.66 9.94,-2.48 17.19,-2.48 7.26,0 14.75,0 22.48,0 7.72,0 15.12,0 22.15,0 7.02,0 12.61,0 16.84,0 h 41.45 c 4.22,0 9.7,0 16.49,0 6.79,0 14.05,0 21.8,0 7.73,0 15.22,0 22.47,0 7.26,0 13.24,0.82 17.9,2.48 l 1.43,-2.83 -2.13,-26.38 -2.8,-2.77 c -11.71,0 -20.25,-0.58 -25.65,-1.74 -5.39,-1.2 -9.7,-2.95 -12.99,-5.28 -9.83,-6.55 -15.45,-19.9 -16.85,-40.05 -0.47,-4.69 -0.81,-9.47 -1.05,-14.39 -0.26,-4.93 -0.35,-11.25 -0.35,-18.97 0,-7.73 0,-17.47 0,-29.15 0,-11.72 0,-26.47 0,-44.27 v -94.11 c 0,-18.28 0,-33.14 0,-44.62 0,-11.49 0.09,-21.08 0.35,-28.8 0.24,-7.72 0.46,-14.51 0.7,-20.37 0.23,-5.86 0.82,-12.77 1.75,-20.73 0.47,-9.35 5.86,-14.04 16.14,-14.04 h 65.35 c 15.45,0 27.75,0.35 36.87,1.05 9.15,0.69 16.26,2.56 21.42,5.62 5.16,3.03 9.15,7.37 11.95,13 2.83,5.62 5.39,13.35 7.73,23.17 l 2.12,2.83 h 32.29 l -12.65,-96.59 -5.59,-7.02 c -3.76,0.7 -9.62,1.04 -17.58,1.04 -7.95,0 -16.4,0 -25.29,0 -8.89,0 -17.67,0 -26.32,0 -8.69,0 -15.36,0 -20.03,0 h -148.93 c -3.29,0 -8.54,0 -15.79,0 -7.29,0 -14.9,0 -22.85,0 -7.96,0 -15.68,0 -23.17,0 -7.49,0 -13.12,-0.81 -16.85,-2.47 l -1.43,2.82 2.13,26.85 3.49,2.83 c 17.81,0 29.97,2.56 36.52,7.72 3.76,3.29 7.41,8.45 10.91,15.47 3.52,7.03 5.74,15.22 6.67,24.6 0.47,4.67 0.82,11.11 1.05,19.33 0.23,8.19 0.47,16.73 0.7,25.64 0.23,8.9 0.35,17.23 0.35,24.95 0,7.73 0,13.23 0,16.53 v 114.54 c 0,25.76 -0.12,48.35 -0.35,67.82 -0.23,19.44 -0.82,32.67 -1.75,39.7" /><path
         id="path28"
         style="fill:#004588;fill-opacity:1;fill-rule:nonzero;stroke:none"
         d="m 6239.79,5577.35 -103.27,292.21 -42.16,-115.88 c -6.1,-16.87 -12.63,-34.07 -19.65,-51.64 -7.02,-17.58 -13.69,-34.19 -20.02,-49.87 -6.33,-15.71 -11.84,-29.53 -16.53,-41.45 -4.69,-11.95 -7.95,-20.49 -9.82,-25.64 l -78.69,-7.73 h -8.43 l -109.58,304.86 c -5.17,14.05 -9.47,25.76 -13,35.12 -3.5,9.39 -6.56,17.34 -9.13,23.9 -2.56,6.56 -4.8,11.95 -6.67,16.15 -1.86,4.22 -3.49,8.19 -4.92,11.95 -5.17,11.69 -10.41,20.72 -15.8,27.04 -5.39,6.33 -10.9,10.99 -16.49,14.05 -5.63,3.03 -11.37,4.78 -17.23,5.28 -5.86,0.43 -11.84,0.7 -17.89,0.7 l -3.54,2.79 -1.39,27.4 0.7,2.1 c 3.29,-0.47 8.07,-0.93 14.39,-1.4 6.33,-0.46 13,-0.7 20.02,-0.7 7.03,0 13.82,0 20.38,0 6.56,0 11.45,0 14.75,0 h 51.99 c 3.26,0 8.65,0 16.15,0 7.49,0 15.33,0 23.52,0 8.19,0 16.06,0 23.55,0 7.49,0 12.88,0 16.15,0 h 1.39 l -2.1,-27.34 -3.49,-2.85 c -13.61,0 -24.13,-1.55 -31.62,-4.58 -7.49,-3.06 -11.25,-11.37 -11.25,-24.95 0,-10.75 3.64,-25.88 10.9,-45.29 7.25,-19.44 16.26,-43.92 27.05,-73.42 l 42.84,-115.21 c 7.96,-18.71 14.51,-36.63 19.67,-53.71 5.16,-17.11 10.29,-31.28 15.45,-42.53 3.76,10.79 8.88,24.49 15.44,41.1 6.56,16.64 13.59,35 21.08,55.14 l 42.87,115.21 c 15.45,40.75 23.16,72.84 23.16,96.24 0,18.74 -4.21,32.09 -12.64,40.05 -8.42,7.95 -25.06,11.95 -49.87,11.95 l -3.52,2.79 -1.41,27.4 0.71,2.1 c 3.29,-1.4 8.54,-2.1 15.83,-2.1 7.25,0 14.74,0 22.47,0 7.72,0 15.21,0 22.47,0 7.25,0 12.53,0 15.82,0 h 51.97 c 3.26,0 8.3,0 15.1,0 6.79,0 13.81,0 21.06,0 7.26,0 14.29,0 21.08,0 6.79,0 11.83,0 15.12,0 h 1.4 l -2.1,-27.34 -3.52,-2.85 c -13.58,0 -24.14,-1.55 -31.63,-4.58 -7.49,-3.06 -11.22,-11.37 -11.22,-24.95 0,-10.75 2.57,-25.88 7.73,-45.29 5.15,-19.44 12.88,-43.92 23.17,-73.42 l 40.04,-115.21 c 6.56,-19.2 12.66,-36.98 18.28,-53.37 5.63,-16.4 11.22,-30.22 16.85,-41.44 3.26,10.76 7.72,24.34 13.35,40.75 5.62,16.38 11.94,34.42 18.96,54.06 l 40.05,115.21 c 10.29,29.03 18.48,53.4 24.57,73.07 6.1,19.67 9.15,34.89 9.15,45.64 0,13.58 -3.76,21.89 -11.25,24.95 -7.49,3.03 -18.04,4.58 -31.62,4.58 l -3.5,2.79 -1.39,27.4 1.39,2.1 c 3.27,-1.4 8.42,-2.1 15.45,-2.1 7.03,0 14.28,0 21.77,0 7.49,0 14.75,0 21.77,0 7.03,0 12.19,0 15.48,0 h 41.44 c 3.26,0 8.08,0 14.4,0 6.33,0 13.01,0 20.03,0 7.02,0 13.81,0.35 20.37,1.05 6.55,0.7 11.45,1.05 14.74,1.05 l 1.4,-2.1 -2.1,-27.34 -3.52,-2.85 c -6.09,0 -11.92,-0.27 -17.54,-0.7 -5.63,-0.5 -11.14,-2.25 -16.53,-5.28 -5.4,-3.06 -10.79,-7.72 -16.15,-14.05 -5.39,-6.32 -10.9,-15.35 -16.49,-27.04 -0.97,-2.36 -1.9,-4.7 -2.84,-7.03 -0.92,-2.36 -2.44,-5.97 -4.57,-10.9 -2.1,-4.9 -4.78,-11.83 -8.07,-20.72 -3.26,-8.89 -7.73,-20.95 -13.35,-36.17 -5.6,-15.21 -12.62,-34.3 -21.08,-57.24 -8.41,-22.97 -18.5,-50.83 -30.18,-83.59 -5.63,-16.41 -11.6,-33.37 -17.93,-50.95 -6.33,-17.54 -12.27,-34.19 -17.89,-49.86 -5.63,-15.71 -10.56,-29.64 -14.76,-41.8 -4.22,-12.18 -7.02,-20.84 -8.44,-25.99 l -78.67,-7.73 h -8.42" /><path
         id="path30"
         style="fill:#004588;fill-opacity:1;fill-rule:nonzero;stroke:none"
         d="m 6811.59,5811.27 h 92.04 l -44.97,124.34 z m 81.49,240.95 120.84,-318.91 c 4.2,-11.72 7.96,-21.57 11.22,-29.53 3.29,-7.95 5.97,-14.75 8.1,-20.37 2.1,-5.63 3.97,-10.17 5.6,-13.7 1.66,-3.49 3.17,-6.67 4.57,-9.47 5.62,-11.71 11.34,-20.72 17.22,-27.05 5.83,-6.32 11.69,-11.01 17.55,-14.04 5.86,-3.07 11.84,-4.81 17.92,-5.28 6.07,-0.47 12.16,-0.7 18.26,-0.7 l 3.52,-2.8 2.1,-26.7 -1.41,-2.82 c -3.29,0 -8.18,0.35 -14.74,1.07 -6.55,0.71 -13.35,1.06 -20.37,1.06 -7.02,0 -13.7,0 -20.02,0 -6.33,0 -11.14,0 -14.41,0 h -51.29 c -3.27,0 -8.66,0 -16.15,0 -7.49,0 -15.32,0 -23.51,0 -8.23,0 -16.07,0 -23.56,0 -7.49,0 -12.88,0 -16.14,0 l -1.4,0.69 2.1,26.7 2.8,2.8 c 12.18,0 21.45,1.52 27.74,4.57 6.33,3.04 9.5,11.35 9.5,24.93 0,7.49 -1.31,18.16 -3.88,31.97 -2.55,13.81 -8.53,31.01 -17.89,51.64 l -14.77,33.7 h -122.91 l -14.04,-33.7 c -8.46,-20.63 -14.78,-38.17 -18.98,-52.69 -4.23,-14.52 -6.33,-24.83 -6.33,-30.92 0,-11.22 2.34,-18.95 7.02,-23.17 4.67,-4.23 13.12,-6.33 25.31,-6.33 l 3.49,-2.8 2.1,-26.7 -1.39,-0.69 c -3.28,0 -8.43,0 -15.45,0 -7.02,0 -14.4,0 -22.12,0 -7.73,0 -15.1,0 -22.13,0 -7.05,0 -12.21,0 -15.47,0 h -41.45 c -3.26,0 -8.19,0 -14.74,0 -6.56,0 -13.35,0 -20.38,0 -7.02,0 -13.69,-0.35 -20.02,-1.06 -6.32,-0.72 -11.11,-1.07 -14.4,-1.07 l -0.7,2.82 1.4,26.7 3.53,2.8 c 6.09,0 12.15,0.47 18.24,1.4 6.1,0.93 12.18,3.06 18.28,6.32 6.09,3.27 12.07,7.85 17.93,13.7 5.82,5.86 11.79,13.47 17.89,22.85 1.39,2.8 3.52,7.12 6.32,12.97 2.83,5.86 7.26,16.29 13.35,31.27 6.09,14.99 14.52,36.29 25.3,63.92 10.75,27.63 25.04,64.38 42.84,110.29 l 60.42,155.25 49.87,21.08 h 7.72" /><path
         id="path32"
         style="fill:#004588;fill-opacity:1;fill-rule:nonzero;stroke:none"
         d="m 7530.22,5582.98 c -3.29,0 -8.68,0 -16.17,0 -7.49,0 -15.21,0 -23.17,0 -7.96,0 -15.7,0 -23.17,0 -7.51,0 -12.92,0 -16.18,0 h -41.44 c -3.26,0 -8.65,0 -16.14,0 -7.49,0 -15.37,0 -23.56,0 -8.18,0 -16.02,0 -23.51,0 -7.5,0 -12.89,0 -16.16,0 l -0.69,0.69 1.4,26.7 3.49,2.8 c 7.02,0 13.94,0.35 20.72,1.05 6.8,0.7 12.31,2.71 16.53,5.98 4.2,3.26 7.96,7.49 11.22,12.64 3.3,5.16 5.4,14.28 6.33,27.4 0.47,3.27 0.82,7.14 1.04,11.6 0.24,4.43 0.47,9.94 0.73,16.49 0.21,6.56 0.36,14.52 0.36,23.91 0,9.35 0,21.07 0,35.11 v 13.35 c 0,13.09 -1.9,23.76 -5.63,31.95 -3.76,8.19 -7.49,15.56 -11.25,22.12 -15.45,25.3 -32.44,51.53 -50.92,78.69 -18.5,27.16 -37.59,54.8 -57.27,82.89 -3.26,5.16 -7.02,10.17 -11.22,15.1 -4.22,4.92 -7.98,8.77 -11.25,11.6 -5.16,4.2 -11.37,7.25 -18.63,9.12 -7.25,1.86 -15.55,3.26 -24.91,4.23 l -5.62,2.79 v 26.7 l 3.49,2.8 c 11.72,-1.4 22.24,-2.68 31.62,-3.85 9.36,-1.16 19.67,-1.74 30.92,-1.74 h 57.6 c 10.75,0 23.28,0.58 37.57,1.74 14.28,1.17 27.98,2.45 41.09,3.85 l 2.82,-2.8 v -26.7 l -2.82,-3.15 c -9.35,0 -17.55,-0.61 -24.57,-1.77 -7.02,-1.17 -12.65,-3.15 -16.87,-5.97 -4.67,-3.3 -7.03,-7.52 -7.03,-12.68 0,-2.83 0.58,-5.63 1.78,-8.46 1.13,-2.79 2.44,-5.39 3.85,-7.72 l 83.58,-133.05 78.7,121.54 c 4.66,7.95 7.03,16.14 7.03,24.57 0,5.62 -1.67,9.85 -4.94,12.65 -3.29,2.82 -7.37,4.92 -12.29,6.32 -4.9,1.4 -10.29,2.33 -16.15,2.8 -5.85,0.47 -11.37,1.43 -16.5,2.82 l -2.82,2.8 v 26.7 l 2.82,2.83 c 13.56,-2.36 24.81,-3.53 33.69,-3.53 8.89,0 19.21,0 30.93,0 h 61.82 c 11.25,0 21.53,0 30.89,0 9.38,0 20.6,1.17 33.72,3.53 l 2.83,-2.83 v -26.7 l -2.83,-2.8 c -10.78,-1.39 -19.9,-3.29 -27.39,-5.62 -7.49,-2.36 -14.28,-5.63 -20.38,-9.82 -6.09,-4.23 -12.07,-9.62 -17.9,-16.18 -5.85,-6.55 -12.29,-14.74 -19.31,-24.57 -14.06,-20.63 -26.12,-38.29 -36.17,-53.04 -10.09,-14.75 -18.74,-27.86 -26,-39.35 -7.26,-11.48 -13.94,-22.12 -20.03,-31.94 -6.08,-9.85 -12.41,-20.14 -18.96,-30.93 -1.87,-2.79 -3.97,-7.6 -6.33,-14.39 -2.34,-6.79 -3.5,-13.7 -3.5,-20.72 v -10.55 c 0,-16.85 0,-30.43 0,-40.72 0,-10.32 0.12,-18.97 0.35,-26 0.23,-7.02 0.46,-12.88 0.7,-17.57 0.23,-4.69 0.58,-9.83 1.05,-15.45 0.93,-13.12 3.17,-22.24 6.67,-27.4 3.53,-5.15 7.14,-9.38 10.9,-12.64 3.73,-3.27 9,-5.28 15.8,-5.98 6.79,-0.7 13.93,-1.05 21.43,-1.05 l 3.52,-2.8 2.1,-26.7 -1.41,-0.69" /><path
         id="path34"
         style="fill:#004588;fill-opacity:1;fill-rule:nonzero;stroke:none"
         d="m 3298.91,7325.94 c 9.01,0 22.35,0 40.07,0 17.69,0 35.88,0 54.56,0 18.69,0 35.42,0 50.25,0 14.8,0 23.81,0 27.02,0 l 5.8,-8.7 -4.81,-124.58 h -43.48 l -3.85,3.93 c -1.32,12.45 -3.06,22.27 -5.31,29.48 -2.27,7.22 -8.22,12.46 -17.9,15.76 -9.64,3.26 -24.62,4.91 -44.91,4.91 -20.25,0 -48.43,0 -84.49,0 h -55.05 l -0.97,-8.6 c -0.66,-8.94 -1.13,-17.23 -1.46,-24.86 -0.31,-7.65 -0.63,-16.57 -0.96,-26.77 -0.34,-10.2 -0.49,-22.62 -0.49,-37.28 0,-14.66 0,-33.46 0,-56.39 v -32.52 c 15.48,0 30.25,0 44.45,0 14.13,0 27.34,0 39.58,0 12.24,0 22.7,0.82 31.38,2.48 8.72,1.65 14.99,4.46 18.86,8.43 6.41,6.6 9.65,15.84 9.65,27.74 l 4.83,5.79 h 35.74 l 3.84,-0.97 c -1.27,-14.82 -2.38,-27.69 -3.37,-38.63 -0.97,-10.96 -1.43,-23.52 -1.43,-37.67 0,-15.47 0.46,-29.8 1.43,-42.99 0.99,-13.22 2.1,-27.53 3.37,-42.99 l -3.84,-0.94 h -36.69 l -3.88,3.8 c 0,16.45 -2.89,28.6 -8.69,36.52 -5.16,7.24 -19.82,10.87 -43.95,10.87 -24.16,0 -51.03,0 -80.64,0 h -10.64 v -77.86 c 0,-18.35 0.15,-33.55 0.49,-45.58 0.33,-12.03 0.65,-22.3 0.96,-30.84 0.33,-8.54 0.8,-16.63 1.46,-24.21 0.62,-7.61 1.29,-16.46 1.93,-26.59 0.64,-12.04 7.08,-18.04 19.32,-18.04 h 43.46 c 36.69,0 65.51,0 86.44,0 20.93,0 36.84,2.47 47.8,7.44 10.96,4.97 18.86,12.08 23.67,21.35 4.84,9.27 9.18,21.86 13.05,37.75 l 3.85,3.98 h 45.41 l -18.36,-141.08 -7.73,-9.61 c -3.23,0 -11.1,0 -23.66,0 -12.56,0 -26.55,0 -42,0 -15.48,0 -30.92,0 -46.37,0 -15.45,0 -27.69,0 -36.69,0 h -195.13 c -4.49,0 -11.92,0 -22.21,0 -10.29,0 -20.93,0 -31.86,0 -10.95,0 -21.59,0 -31.88,0 -10.32,0 -17.72,0 -22.21,0 l -1.92,0.96 2.88,36.71 4.84,3.86 c 10.28,0 19.93,0.48 28.97,1.46 9.01,0.97 16.41,3.69 22.21,8.21 5.15,4.5 10.14,10.29 14.98,17.38 4.81,7.09 7.87,19.63 9.18,37.67 0,4.49 0.15,9.81 0.47,15.93 0.31,6.12 0.64,13.69 0.96,22.7 0.32,9.01 0.49,19.96 0.49,32.84 0,12.88 0,28.98 0,48.29 v 157.44 c 0,22.53 0,41.54 0,56.98 0,15.47 0,28.65 0,39.61 0,10.93 -0.17,20.27 -0.49,28.01 -0.32,7.72 -0.82,15.45 -1.43,23.17 -1.31,17.39 -4.37,29.95 -9.18,37.67 -4.84,7.72 -9.83,13.52 -14.98,17.39 -5.8,5.14 -13.2,8.04 -22.21,8.7 -9.04,0.62 -18.69,0.96 -28.97,0.96 l -4.84,3.86 -2.88,36.71 1.92,0.96 c 4.49,0 11.89,0 22.21,0 10.29,0 21.39,0 33.31,0 11.92,0 23.52,0 34.77,0 11.28,0 20.43,0 27.54,0 h 158.41" /><path
         id="path36"
         style="fill:#004588;fill-opacity:1;fill-rule:nonzero;stroke:none"
         d="m 4267.64,7202.3 c -19.3,-25.74 -35.88,-47.49 -49.72,-65.18 -13.87,-17.72 -25.94,-33.18 -36.23,-46.37 -10.32,-13.2 -19.64,-24.96 -28.01,-35.25 -8.36,-10.3 -17.08,-21.25 -26.08,-32.83 l 2.91,-2.9 c 22.53,-30.91 44.1,-59.9 64.7,-86.93 20.61,-27.04 38.95,-51.05 55.06,-71.96 16.09,-20.92 29.47,-37.83 40.08,-50.71 10.63,-12.88 17.54,-20.93 20.78,-24.15 5.79,-6.44 10.93,-12.4 15.44,-17.87 4.49,-5.47 9.97,-10.62 16.41,-15.44 6.44,-4.84 14.17,-9.03 23.2,-12.56 9.01,-3.54 20.9,-6.62 35.73,-9.18 l 8.69,-6.77 v -32.83 l -5.8,-5.8 c -12.89,1.94 -26.9,3.72 -42,5.32 -15.15,1.61 -28.5,2.42 -40.1,2.42 h -86.91 c -14.84,0 -32.36,-0.81 -52.64,-2.42 -20.29,-1.6 -39.12,-3.38 -56.51,-5.32 l -4.84,5.8 v 33.81 l 4.84,5.79 c 14.8,1.28 28.33,4.98 40.57,11.11 12.21,6.11 18.36,14.64 18.36,25.6 0,5.8 -3.73,15.12 -11.14,28 -7.4,12.87 -16.72,27.68 -28,44.44 -11.25,16.73 -23.82,34.11 -37.66,52.15 -13.84,18.01 -27.52,35.4 -41.04,52.16 -12.91,-15.45 -25.62,-31.25 -38.15,-47.34 -12.56,-16.1 -24.34,-31.23 -35.26,-45.39 -10.96,-14.17 -20.46,-26.89 -28.51,-38.15 -8.04,-11.26 -13.67,-20.12 -16.9,-26.55 -2.57,-6.46 -3.85,-12.24 -3.85,-17.39 0,-5.8 0.78,-10.64 2.42,-14.5 1.6,-3.86 4.81,-7.24 9.64,-10.14 4.84,-2.89 12.07,-5.46 21.75,-7.72 9.65,-2.26 22.53,-4.34 38.62,-6.28 l 5.8,-5.79 v -32.85 l -5.8,-5.78 c -18.69,3.22 -36.7,4.82 -54.07,4.82 -17.4,0 -33.49,0 -48.29,0 h -84.06 c -14.81,0 -29.79,0 -44.88,0 -15.15,0 -31.74,-1.6 -49.75,-4.82 l -4.84,5.78 v 31.87 l 7.72,6.77 c 14.17,1.94 26.41,4.35 36.72,7.25 10.29,2.89 19.62,6.91 28.01,12.07 8.34,5.14 16.74,11.91 25.1,20.29 8.36,8.36 18.01,18.99 28.97,31.87 7.72,9.66 17.4,21.56 29,35.73 11.57,14.16 24.28,30.27 38.15,48.29 13.82,18.03 28.8,37.03 44.92,57 16.08,19.94 32.17,40.55 48.29,61.81 l -4.84,5.79 c -20.64,29.61 -44.45,62.62 -71.47,99 -27.04,36.38 -56.04,76.45 -86.94,120.24 -5.15,7.09 -10.46,14.01 -15.94,20.77 -5.48,6.76 -10.78,12.08 -15.94,15.94 -7.09,5.8 -15.63,9.99 -25.59,12.56 -10,2.57 -21.42,4.49 -34.27,5.79 l -7.73,3.86 v 37.19 l 5.77,3.86 c 14.81,-2.9 29.32,-4.34 43.48,-4.34 14.14,0 28.02,0 41.54,0 h 89.83 c 14.8,0 31.85,0 51.17,0 19.33,0 37.98,1.44 56.02,4.34 l 4.84,-3.86 v -37.19 l -4.84,-4.34 c -12.88,0 -24.13,-0.82 -33.81,-2.45 -9.64,-1.62 -17.37,-4.39 -23.17,-8.28 -5.15,-2.59 -8.22,-5.36 -9.18,-8.29 -0.96,-2.93 -1.46,-5.68 -1.46,-8.28 0,-3.26 1.46,-7.15 4.38,-11.71 2.88,-4.56 4.34,-8.45 4.34,-11.69 10.29,-17.38 19.61,-32.21 28.01,-44.43 8.36,-12.25 16.23,-23.83 23.66,-34.77 7.38,-10.96 14.95,-21.9 22.68,-32.85 7.72,-10.96 16.09,-23.17 25.12,-36.7 23.17,28.32 42.82,55.06 58.9,80.17 16.09,25.11 26.73,43.14 31.89,54.08 1.28,3.22 3.38,7.24 6.27,12.08 2.91,4.83 4.37,9.81 4.37,14.97 0,7.72 -2.1,13.84 -6.3,18.34 -4.2,4.51 -9.32,7.89 -15.45,10.14 -6.11,2.27 -13.02,4.03 -20.78,5.33 -7.72,1.28 -15.12,2.9 -22.21,4.82 l -4.8,3.86 v 37.19 l 4.8,3.86 c 19.33,-3.54 35.1,-5.3 47.34,-5.3 12.24,0 26.08,0 41.53,0 h 94.67 c 15.44,0 29.43,0 41.99,0 12.57,0 27.86,1.76 45.88,5.3 l 3.87,-3.86 v -37.19 l -3.87,-3.86 c -14.17,-1.92 -26.73,-4.98 -37.66,-9.17 -10.96,-4.19 -21.25,-9.51 -30.89,-15.94 -9.68,-6.44 -18.86,-14.34 -27.55,-23.66 -8.68,-9.34 -18.18,-20.77 -28.5,-34.3" /><path
         id="path38"
         style="fill:#004588;fill-opacity:1;fill-rule:nonzero;stroke:none"
         d="m 4889.63,7006.25 c 54.1,0 92.74,12.22 115.91,36.69 23.17,24.47 34.77,58.28 34.77,101.43 0,34.77 -13.38,60.67 -40.07,77.74 -26.73,17.05 -63.28,25.59 -109.62,25.59 h -45.41 c -1.92,-28.33 -3.23,-49.42 -3.87,-63.26 -0.64,-13.84 -0.96,-26.25 -0.96,-37.19 v -105.27 c 0,-8.38 0.32,-14.97 0.96,-19.81 0.64,-4.82 2.27,-8.36 4.84,-10.62 2.56,-2.26 6.29,-3.7 11.1,-4.34 4.84,-0.64 11.43,-0.96 19.82,-0.96 z m 33.81,-317.78 c -4.52,0 -11.92,0 -22.21,0 -10.32,0 -20.93,0 -31.88,0 -10.93,0 -21.57,0 -31.86,0 -10.32,0 -17.72,0 -22.21,0 h -57.01 c -4.49,0 -11.92,0 -22.21,0 -10.28,0 -20.92,0 -31.85,0 -10.96,0 -21.6,0 -31.89,0 -10.31,0 -17.72,0 -22.2,0 l -1.93,0.96 2.89,36.71 4.83,3.86 c 7.73,0 16.73,0.48 27.05,1.46 10.29,0.97 18.33,3.38 24.13,7.25 5.16,3.86 9.97,9.96 14.49,18.34 4.49,8.37 7.72,20.91 9.67,37.67 0,4.49 0.15,9.81 0.47,15.93 0.32,6.12 0.64,13.69 0.97,22.7 0.31,9.01 0.49,19.96 0.49,32.84 0,12.88 0,28.98 0,48.29 v 212.5 c 0,12.87 0,27.53 0,43.93 0,16.43 -0.64,32.68 -1.93,48.78 -1.3,16.75 -4.37,29.13 -9.17,37.19 -4.84,8.04 -9.83,14 -14.99,17.87 -5.8,5.14 -11.74,8.04 -17.86,8.7 -6.12,0.62 -17.23,0.96 -33.32,0.96 l -4.83,3.86 -2.89,36.71 1.93,3.86 c 4.48,0 10.46,-0.28 17.86,-0.82 7.41,-0.53 15.13,-1.08 23.17,-1.6 8.04,-0.54 16.27,-1.06 24.63,-1.62 8.37,-0.54 16.09,-0.8 23.2,-0.8 h 73.39 c 7.08,0 15.13,0 24.16,0 9,0 18.19,0 27.51,0 9.33,0 17.87,0 25.59,0 7.75,0 14.16,0 19.33,0 43.13,0 79.68,-4.34 109.61,-13 29.96,-8.68 54.24,-20.72 72.92,-36.12 18.69,-15.44 32.38,-33.88 41.07,-55.41 8.69,-21.52 13.03,-45.13 13.03,-70.81 0,-43.04 -7.73,-78.37 -23.17,-105.98 -15.45,-27.62 -35.27,-49.46 -59.4,-65.52 -24.16,-16.06 -51.18,-27.15 -81.14,-33.24 -29.94,-6.11 -59.08,-9.15 -87.41,-9.15 h -54.09 c 0,-12.89 0,-26.41 0,-40.58 0,-14.16 0.14,-27.84 0.49,-41.03 0.32,-13.2 0.64,-24.97 0.96,-35.27 0.32,-10.3 0.79,-18.02 1.46,-23.17 1.28,-18.68 4.49,-31.72 9.64,-39.11 5.17,-7.42 9.65,-12.72 13.53,-15.94 5.8,-5.16 11.75,-8.06 17.87,-8.7 6.12,-0.64 17.54,-0.97 34.3,-0.97 l 3.85,-3.86 2.91,-36.71 -1.95,-0.96" /><path
         id="path40"
         style="fill:#004588;fill-opacity:1;fill-rule:nonzero;stroke:none"
         d="m 5643.97,7017.83 c 47.02,0 83.88,11.22 110.61,33.66 26.69,22.43 40.07,53.54 40.07,93.31 0,35.89 -11.92,62.02 -35.73,78.39 -23.84,16.33 -61.82,24.51 -113.96,24.51 h -45.41 c -1.92,-25.65 -3.23,-45.53 -3.87,-59.63 -0.65,-14.12 -0.96,-27.57 -0.96,-40.4 v -94.25 c 0,-13.47 1.6,-22.77 4.83,-27.9 3.21,-5.12 9.33,-7.69 18.37,-7.69 z m 33.81,-331.78 c -5.16,2.28 -12.39,3.38 -21.72,3.38 -9.35,0 -19.32,0 -29.96,0 -10.61,0 -20.92,0 -30.89,0 -10,0 -18.51,0 -25.59,0 h -57.01 c -7.72,0 -16.73,0 -27.01,0 -10.32,0 -20.64,0 -30.93,0 -10.31,0 -20.14,0 -29.46,0 -9.33,0 -16.26,-1.1 -20.76,-3.38 l -1.92,3.88 2.89,37.13 4.83,3.91 c 24.46,0 41.19,2.9 50.22,8.7 13.52,9 21.89,27.67 25.13,56.01 0.61,10.93 1.1,27.81 1.42,50.61 0.32,22.83 0.5,45.83 0.5,68.98 v 212.18 c 0,22.48 -0.35,40.32 -0.96,53.51 -0.68,13.17 -1.64,26.2 -2.92,39.05 -2.56,17.36 -5.3,29.9 -8.19,37.63 -2.91,7.71 -7.26,13.81 -13.06,18.32 -5.15,3.2 -11.42,5.45 -18.82,6.74 -7.41,1.28 -18.51,1.94 -33.32,1.94 l -4.83,3.89 -2.89,36.93 1.92,3.86 c 16.73,-2.9 33.32,-4.34 49.75,-4.34 16.42,0 29.44,0 39.12,0 h 73.38 c 14.81,0 31.72,0 50.72,0 18.98,0 35.59,0 49.75,0 76.62,0 134.57,-14.3 173.86,-42.88 39.25,-28.58 58.89,-71.12 58.89,-127.64 0,-40.47 -11.74,-77.23 -35.23,-110.3 -23.52,-33.08 -58.44,-61.82 -104.81,-86.21 21.89,-32.92 40.39,-59.69 55.55,-80.34 15.1,-20.63 28.15,-37.1 39.11,-49.36 14.82,-17.42 28.65,-31.94 41.53,-43.55 12.87,-11.62 25.6,-21.3 38.16,-29.03 12.56,-7.77 25.58,-13.57 39.11,-17.43 13.53,-3.88 28.65,-6.46 45.38,-7.74 l 5.8,-3.87 1.95,-36.7 -1.95,-6.28 c -24.48,0 -45.73,0 -63.74,0 -18.05,0 -31.25,0 -39.61,0 -34.13,0 -64.56,9.41 -91.25,28.27 -26.73,18.86 -55.23,50.98 -85.49,96.37 -7.08,10.23 -14.65,21.73 -22.7,34.51 -8.05,12.78 -16.09,25.41 -24.13,37.89 -8.08,12.45 -15.63,24.43 -22.71,35.93 -7.11,11.51 -12.88,21.43 -17.4,29.75 h -62.77 c 0,-21.91 0,-40.75 0,-56.52 0,-15.78 0.14,-29.45 0.49,-41.05 0.32,-11.58 0.79,-21.58 1.46,-29.93 0.61,-8.38 1.28,-16.1 1.92,-23.19 2.57,-29.62 9.65,-48.29 21.25,-56.01 4.49,-3.24 10.29,-5.48 17.37,-6.76 7.08,-1.3 19,-1.94 35.76,-1.94 l 3.85,-3.91 2.92,-37.13 -1.96,-3.88" /><path
         id="path42"
         style="fill:#004588;fill-opacity:1;fill-rule:nonzero;stroke:none"
         d="m 6515.19,7325.94 c 9,0 22.35,0 40.06,0 17.7,0 35.88,0 54.56,0 18.69,0 35.41,0 50.26,0 14.8,0 23.81,0 27.01,0 l 5.8,-8.7 -4.8,-124.58 h -43.49 l -3.85,3.93 c -1.31,12.45 -3.06,22.27 -5.3,29.48 -2.28,7.22 -8.22,12.46 -17.9,15.76 -9.65,3.26 -24.63,4.91 -44.91,4.91 -20.26,0 -48.44,0 -84.5,0 h -55.05 l -0.96,-8.6 c -0.67,-8.94 -1.13,-17.23 -1.46,-24.86 -0.32,-7.65 -0.64,-16.57 -0.96,-26.77 -0.35,-10.2 -0.5,-22.62 -0.5,-37.28 0,-14.66 0,-33.46 0,-56.39 v -32.52 c 15.48,0 30.25,0 44.45,0 14.13,0 27.34,0 39.58,0 12.24,0 22.71,0.82 31.39,2.48 8.71,1.65 14.98,4.46 18.86,8.43 6.41,6.6 9.65,15.84 9.65,27.74 l 4.83,5.79 h 35.73 l 3.85,-0.97 c -1.28,-14.82 -2.39,-27.69 -3.38,-38.63 -0.97,-10.96 -1.43,-23.52 -1.43,-37.67 0,-15.47 0.46,-29.8 1.43,-42.99 0.99,-13.22 2.1,-27.53 3.38,-42.99 l -3.85,-0.94 H 6577 l -3.87,3.8 c 0,16.45 -2.9,28.6 -8.7,36.52 -5.15,7.24 -19.81,10.87 -43.94,10.87 -24.16,0 -51.04,0 -80.65,0 h -10.64 v -77.86 c 0,-18.35 0.15,-33.55 0.5,-45.58 0.32,-12.03 0.64,-22.3 0.96,-30.84 0.33,-8.54 0.79,-16.63 1.46,-24.21 0.61,-7.61 1.28,-16.46 1.92,-26.59 0.65,-12.04 7.08,-18.04 19.33,-18.04 h 43.45 c 36.7,0 65.52,0 86.44,0 20.93,0 36.85,2.47 47.8,7.44 10.96,4.97 18.86,12.08 23.67,21.35 4.84,9.27 9.18,21.86 13.05,37.75 l 3.85,3.98 h 45.41 l -18.36,-141.08 -7.72,-9.61 c -3.24,0 -11.11,0 -23.67,0 -12.56,0 -26.55,0 -42,0 -15.48,0 -30.92,0 -46.36,0 -15.45,0 -27.7,0 -36.7,0 H 6347.1 c -4.48,0 -11.91,0 -22.21,0 -10.29,0 -20.93,0 -31.85,0 -10.96,0 -21.6,0 -31.89,0 -10.32,0 -17.72,0 -22.2,0 l -1.93,0.96 2.88,36.71 4.85,3.86 c 10.28,0 19.93,0.48 28.96,1.46 9,0.97 16.41,3.69 22.21,8.21 5.16,4.5 10.14,10.29 14.98,17.38 4.81,7.09 7.87,19.63 9.19,37.67 0,4.49 0.13,9.81 0.46,15.93 0.32,6.12 0.64,13.69 0.96,22.7 0.33,9.01 0.5,19.96 0.5,32.84 0,12.88 0,28.98 0,48.29 v 157.44 c 0,22.53 0,41.54 0,56.98 0,15.47 0,28.65 0,39.61 0,10.93 -0.17,20.27 -0.5,28.01 -0.32,7.72 -0.82,15.45 -1.42,23.17 -1.32,17.39 -4.38,29.95 -9.19,37.67 -4.84,7.72 -9.82,13.52 -14.98,17.39 -5.8,5.14 -13.21,8.04 -22.21,8.7 -9.03,0.62 -18.68,0.96 -28.96,0.96 l -4.85,3.86 -2.88,36.71 1.93,0.96 c 4.48,0 11.88,0 22.2,0 10.29,0 21.4,0 33.31,0 11.93,0 23.53,0 34.78,0 11.28,0 20.43,0 27.54,0 h 158.41" /><path
         id="path44"
         style="fill:#004588;fill-opacity:1;fill-rule:nonzero;stroke:none"
         d="m 7103.4,7177.2 c 0,-16.75 4.48,-30.91 13.51,-42.5 9.02,-11.58 21.25,-21.73 36.7,-30.43 15.45,-8.68 33.46,-16.9 54.1,-24.62 20.57,-7.73 42.49,-15.79 65.66,-24.15 23.17,-9.02 45.41,-18.52 66.65,-28.49 21.25,-10 40.08,-22.22 56.48,-36.71 16.45,-14.48 29.62,-31.55 39.61,-51.19 9.97,-19.65 14.98,-43.31 14.98,-70.99 0,-28.34 -5.47,-53.93 -16.43,-76.78 -10.96,-22.86 -26.55,-42.49 -46.84,-58.91 -20.28,-16.43 -45.09,-29.15 -74.37,-38.16 -29.3,-9 -61.97,-13.52 -98.02,-13.52 -38.65,0 -77.27,4.82 -115.91,14.48 -38.65,9.67 -73.09,22.86 -103.35,39.61 l -3.85,12.55 22.21,129.42 h 43.46 l 4.83,-5.78 c 3.85,-44.44 18.83,-75.99 44.91,-94.65 26.06,-18.7 61.65,-28.03 106.73,-28.03 44.43,0 76.6,7.89 96.59,23.67 19.94,15.76 29.94,39.13 29.94,70.02 0,19.97 -4.2,36.37 -12.56,49.27 -8.37,12.87 -20.15,23.81 -35.28,32.83 -15.12,9.01 -33.31,17.05 -54.55,24.15 -21.25,7.08 -44.77,15.46 -70.5,25.11 -23.18,8.36 -44.77,17.54 -64.7,27.53 -19.97,9.98 -37.2,21.88 -51.68,35.74 -14.48,13.83 -25.94,30.41 -34.31,49.74 -8.36,19.31 -12.56,42.49 -12.56,69.54 0,56.66 18.51,100.45 55.55,131.36 37.02,30.91 93.54,46.35 169.51,46.35 34.78,0 67.27,-4.02 97.55,-12.06 30.25,-8.06 55.69,-17.56 76.31,-28.49 l 3.84,-10.64 -15.44,-110.1 h -46.35 l -4.83,4.83 c -3.88,27.04 -15.45,47.96 -34.77,62.78 -19.33,14.8 -46.38,22.22 -81.14,22.22 -38.62,0 -68.59,-7.74 -89.84,-23.19 -21.24,-15.46 -31.84,-36.07 -31.84,-61.81" /><path
         id="path46"
         style="fill:#004588;fill-opacity:1;fill-rule:nonzero;stroke:none"
         d="m 7837.42,7177.2 c 0,-16.75 4.48,-30.91 13.52,-42.5 9.01,-11.58 21.25,-21.73 36.7,-30.43 15.45,-8.68 33.45,-16.9 54.09,-24.62 20.57,-7.73 42.5,-15.79 65.66,-24.15 23.18,-9.02 45.41,-18.52 66.66,-28.49 21.24,-10 40.07,-22.22 56.49,-36.71 16.43,-14.48 29.61,-31.55 39.61,-51.19 9.96,-19.65 14.97,-43.31 14.97,-70.99 0,-28.34 -5.48,-53.93 -16.44,-76.78 -10.96,-22.86 -26.55,-42.49 -46.83,-58.91 -20.29,-16.43 -45.09,-29.15 -74.38,-38.16 -29.3,-9 -61.96,-13.52 -98.02,-13.52 -38.64,0 -77.26,4.82 -115.91,14.48 -38.65,9.67 -73.09,22.86 -103.34,39.61 l -3.85,12.55 22.2,129.42 h 43.46 l 4.84,-5.78 c 3.84,-44.44 18.82,-75.99 44.91,-94.65 26.05,-18.7 61.65,-28.03 106.73,-28.03 44.42,0 76.6,7.89 96.59,23.67 19.93,15.76 29.93,39.13 29.93,70.02 0,19.97 -4.2,36.37 -12.56,49.27 -8.37,12.87 -20.14,23.81 -35.26,32.83 -15.13,9.01 -33.32,17.05 -54.56,24.15 -21.25,7.08 -44.78,15.46 -70.51,25.11 -23.16,8.36 -44.77,17.54 -64.7,27.53 -19.97,9.98 -37.2,21.88 -51.68,35.74 -14.48,13.83 -25.94,30.41 -34.3,49.74 -8.36,19.31 -12.56,42.49 -12.56,69.54 0,56.66 18.5,100.45 55.55,131.36 37.02,30.91 93.53,46.35 169.51,46.35 34.77,0 67.26,-4.02 97.54,-12.06 30.26,-8.06 55.71,-17.56 76.31,-28.49 l 3.85,-10.64 -15.45,-110.1 h -46.34 l -4.84,4.83 c -3.88,27.04 -15.45,47.96 -34.77,62.78 -19.32,14.8 -46.37,22.22 -81.14,22.22 -38.62,0 -68.58,-7.74 -89.82,-23.19 -21.25,-15.46 -31.86,-36.07 -31.86,-61.81" /><path
         id="path48"
         style="fill:#004588;fill-opacity:1;fill-rule:nonzero;stroke:none"
         d="M 2553.08,4309.48 5615,2486.06 8676.92,4309.48 V 8759.15 H 2553.08 Z M 5615,2451.33 2523.24,4292.52 V 8788.99 H 8706.77 V 4292.52 L 5615,2451.33" /><path
         id="path50"
         style="fill:#004588;fill-opacity:1;fill-rule:nonzero;stroke:none"
         d="M 2414.81,4250.23 5615,2344.48 8815.19,4250.23 V 8900.85 H 2414.81 Z M 5615,2308.16 l -7.99,4.75 -3223.38,1919.6 V 8932.04 H 8846.37 V 4232.51 l -7.61,-4.54 L 5615,2308.16" /><path
         id="path52"
         style="fill:#2f4486;fill-opacity:1;fill-rule:nonzero;stroke:none"
         d="m 6439.15,3898.64 c 0,-45.05 -2.84,-139.68 0,-140.21 14.41,-2.71 36.05,-5.07 52.48,-7.08 0,44.68 0.05,138.41 0.05,138.41 -13.17,3.34 -36.51,6.36 -52.53,8.88 z m -33.41,7.79 c -20.65,5.01 -41.12,9.97 -63.75,15.44 0,-35.06 0,-67.06 0,-99.06 0,-58.02 0,-58.02 0,-58.02 1.13,0.04 61.81,-7.33 63.75,-6.25 0,45.2 0,100.82 0,147.89 z M 6225.45,3795.2 c 25.45,-5.17 50.07,-10.16 77.49,-15.72 0,52.96 0.15,101.4 -0.3,149.83 -0.03,3.47 -3.68,9.02 -6.81,10.04 -22.87,7.43 -46.04,13.95 -70.38,21.14 0,-55.52 0,-108.62 0,-165.29 z m -645.63,198.99 c -0.21,39.54 -20.09,68.24 -47.86,74.35 -26.25,5.79 -55.53,-10.44 -68.67,-38.21 -11.95,-25.24 -9.04,-50.12 4.04,-73.67 12.71,-22.9 32.3,-37.18 59.43,-34.19 25.72,2.82 40.24,20.61 47.53,44.18 3.26,10.56 4.42,21.76 5.53,27.54 z m -520.92,-0.25 c -0.41,41.1 -21.3,69.95 -50.14,75.07 -26.92,4.8 -56.39,-13.54 -68.11,-42.59 -10.42,-25.82 -6.26,-50.48 7.95,-73.39 13.03,-21.01 32.18,-33.59 57.55,-30.57 24.81,2.96 39.3,19.9 46.68,42.64 3.61,11.11 4.89,22.98 6.07,28.84 z m 1124.32,-182.35 c 1.41,5.3 2.02,6.54 2.02,7.79 0.11,34.78 2.56,164.31 2.9,175.32 -14.4,3.83 -84.6,28.68 -100.71,36.15 0,-61.69 -0.28,-118.76 0.48,-175.82 0.07,-5.32 5.7,-13.54 10.61,-15.33 27.54,-10.11 55.65,-18.66 84.7,-28.11 z m -245.55,341.8 c 0,-78.85 -0.07,-154.25 0.22,-229.65 0.01,-3.94 2.05,-9.88 5,-11.49 31.91,-17.42 64.2,-34.13 99.3,-52.58 -2.31,71.1 -4.3,137.94 -7.02,204.74 -0.21,4.89 -4.8,10.62 -8.9,14.15 -28.28,24.35 -56.97,48.22 -88.6,74.83 z m -61.23,-205.96 c 1.56,4.47 2.37,5.71 2.37,6.94 0.17,84.83 0.44,169.65 0.08,254.48 -0.03,5.76 -3.56,12.5 -7.44,17.12 -25.38,30.18 -51.23,59.97 -77.07,89.74 -9.17,10.56 -18.77,20.73 -28.57,31.5 -1.91,-2.92 -2.54,-3.43 -2.52,-3.92 3.85,-109.02 7.7,-218.06 11.87,-327.08 0.14,-3.91 2.54,-9.37 5.62,-11.28 31.14,-19.19 62.66,-37.78 95.66,-57.5 z m -587.14,443.03 c 108.5,0 216.99,-0.01 325.49,0.01 28.14,0 34.65,5.56 36.54,33.6 0.6,8.99 -0.92,18.38 -2.99,27.23 -4.79,20.42 -9.97,40.77 -15.96,60.86 -15.34,51.49 -30.65,103.03 -47.17,154.14 -6.38,19.73 -19.84,29.03 -43.16,28.87 -154.52,-1.08 -309.05,-0.56 -463.57,-0.56 -61.82,0 -62.93,-0.76 -84.27,-59.04 -0.9,-2.46 -1.71,-4.96 -2.54,-7.46 -16.71,-50.44 -34.43,-100.59 -49.63,-151.49 -5.66,-18.97 -6.83,-39.66 -7.49,-59.65 -0.6,-18.36 8.3,-27.18 29.26,-26.98 108.49,1.03 217,0.48 325.49,0.47 z m 1235.01,-478.4 c 0,-91.56 0.25,-182.95 -0.22,-274.34 -0.1,-17.9 -12.17,-27.75 -30.85,-27.82 -40.78,-0.11 -81.56,-0.04 -122.34,-0.04 -449.24,0 -898.48,0.46 -1347.72,-0.71 -43.81,-0.12 -76.49,15.8 -103.36,46.96 -49.2,57.06 -78.33,121.54 -76.22,199.23 3.66,134.78 0.11,269.94 9.06,404.31 5.13,77.2 25.28,154.12 45.29,229.4 20.88,78.55 49.39,155.08 75.34,232.23 4.53,13.49 11.97,26.28 19.69,38.37 12.12,18.98 29.61,28.35 52.95,28.31 174.31,-0.32 348.61,0.13 522.91,-0.36 46.96,-0.14 111.53,-56.03 131.8,-106.53 30.05,-74.85 57.97,-151.2 95.64,-222.21 147,-277.09 375.89,-452.28 678.27,-532.71 14.6,-3.88 29.26,-7.48 43.88,-11.27 1.24,-0.32 2.36,-1.11 5.88,-2.82" /><path
         id="path54"
         style="fill:#2f4486;fill-opacity:1;fill-rule:nonzero;stroke:none"
         d="m 5327.78,4342.1 h -49.33 v 385.31 h 49.33 V 4342.1" /><path
         id="path56"
         style="fill:#2f4486;fill-opacity:1;fill-rule:nonzero;stroke:none"
         d="m 5763.29,4351.5 c 0,0 193.29,-373.93 728.39,-461.74 l 4.29,15.78 c 0,0 -246.66,58.97 -413.41,164.17 -166.74,105.18 -319.27,312.38 -319.27,312.38 v -30.59" /><path
         id="path58"
         style="fill:#2f4486;fill-opacity:1;fill-rule:nonzero;stroke:none"
         d="m 5711.03,4077.18 c 0,0 252.35,-336.92 794.6,-335.22 l 1.63,16.28 c 0,0 -253.01,17.45 -434.83,93.68 -181.81,76.24 -366.44,255.42 -366.44,255.42 l 5.04,-30.16" /><path
         id="path60"
         style="fill:#2f4486;fill-opacity:1;fill-rule:nonzero;stroke:none"
         d="m 6505.1,3836.34 c -604.39,112.36 -753.62,428.29 -759.67,441.7 l 21.56,9.76 c 1.43,-3.17 151.27,-318.29 742.42,-428.2 l -4.31,-23.26" /><path
         id="path62"
         style="fill:#f7f7f7;fill-opacity:1;fill-rule:nonzero;stroke:none"
         d="m 5422.12,3942.52 h -333 v 128.03 h 333 v -128.03" /><path
         id="path64"
         style="fill:#2f4486;fill-opacity:1;fill-rule:nonzero;stroke:none"
         d="m 6523.12,3517.89 v 0 44.78 H 4843.49 V 3368.5 h 935.1 l 11.54,8.01 c 1.38,0.97 155.08,96.62 732.99,96.62 v 44.76 0" /></g></g></svg>